<svg viewBox="0 0 22 28" fill="none" xmlns="http://www.w3.org/2000/svg">
<path d="M20.1618 9.06552C20.1051 8.4236 19.8214 7.83516 19.3675 7.40721C18.9136 6.97926 18.3178 6.71179 17.6086 6.71179H16.1051V5.48144C16.1051 4.14409 15.5377 2.94048 14.6015 2.08458C13.6654 1.20193 12.3888 0.666992 10.9987 0.666992C9.58026 0.666992 8.30366 1.20193 7.39586 2.08458C6.45969 2.94048 5.89232 4.14409 5.89232 5.48144V6.71179H4.38877C3.67955 6.71179 3.0838 6.97926 2.6299 7.40721C2.176 7.83516 1.89231 8.4236 1.83558 9.06552L0.332031 24.8997C0.332031 24.9799 0.332031 25.0602 0.332031 25.0869C0.332031 25.6754 0.58735 26.237 1.04125 26.6382C1.46678 27.0127 2.03416 27.2802 2.6299 27.3337H2.65827C2.74338 27.3337 2.82849 27.3337 2.88522 27.3337H19.1122C19.1689 27.3337 19.254 27.3337 19.3391 27.3337C19.9632 27.2802 20.5306 27.0127 20.9561 26.6382C21.41 26.237 21.6654 25.6754 21.6654 25.0602C21.6654 25.0067 21.6654 24.9532 21.6654 24.8729L20.1618 9.06552ZM7.4526 5.48144C7.4526 4.54529 7.84976 3.71614 8.50224 3.10096C9.15473 2.48578 10.0342 2.11133 11.0271 2.11133C12.02 2.11133 12.8994 2.48578 13.5519 3.10096C14.2044 3.71614 14.6015 4.54529 14.6015 5.48144V6.71179H7.4526V5.48144ZM20.0767 25.0869C20.0767 25.3009 19.9916 25.4881 19.8214 25.6219C19.6512 25.7823 19.3959 25.8893 19.1689 25.9161C19.1689 25.9161 19.1405 25.9161 19.0838 25.9161H2.88522C2.82849 25.9161 2.80012 25.9161 2.80012 25.9161H2.77175C2.51643 25.8893 2.28948 25.7823 2.11927 25.6219C1.94905 25.4881 1.86395 25.3009 1.86395 25.0869V25.0067L3.36749 9.19926C3.39586 8.90504 3.53771 8.63757 3.73629 8.45034C3.9065 8.28986 4.13345 8.18287 4.38877 8.18287H5.89232V11.446C5.89232 11.8472 6.23274 12.1682 6.65827 12.1682C7.0838 12.1682 7.42423 11.8472 7.42423 11.446V8.18287H14.5164V11.446C14.5164 11.8472 14.8569 12.1682 15.2824 12.1682C15.7079 12.1682 16.0483 11.8472 16.0483 11.446V8.18287H17.5519C17.8072 8.18287 18.0342 8.28986 18.2044 8.45034C18.403 8.63757 18.5448 8.90504 18.5732 9.19926L20.0767 25.0334V25.0869Z" fill="#121212" stroke="#F5F5F5" stroke-width="0.3"/>
</svg>
