<svg viewBox="0 0 78 22" fill="none" xmlns="http://www.w3.org/2000/svg">
<path fill-rule="evenodd" clip-rule="evenodd" d="M0.355469 1.04639H20.6691V21.3047H0.355469V1.04639Z" fill="black"/>
<path fill-rule="evenodd" clip-rule="evenodd" d="M0.941406 1.63135H20.08V20.7183H0.941406V1.63135Z" fill="#FFF200"/>
<path fill-rule="evenodd" clip-rule="evenodd" d="M1.96037 16.8626L4.45697 19.4006L10.3064 13.482L16.3515 19.5225L18.8846 17.0209L12.9002 11.0536L14.0506 9.94313V7.57568L14.7728 6.96562V8.82037L15.7029 9.57692L18.4805 6.80686L19.3737 7.49016C19.9001 5.54989 16.8529 1.14438 14.3321 3.58506L11.3948 6.48933L11.9947 7.20947L10.5017 8.6616L9.05789 7.24587L9.8165 6.56213L6.59823 3.4627C4.17551 1.47331 1.69122 4.50038 1.60547 7.45332L2.48634 6.72133L5.19051 9.62604L6.15713 8.82081V7.03886L6.75655 7.49016V9.8212L7.93118 10.9926L1.96037 16.8626Z" fill="black"/>
<path fill-rule="evenodd" clip-rule="evenodd" d="M25.8557 3.47492V5.2323H26.6144C27.6544 5.03714 27.373 3.54816 26.6144 3.47492H25.8557ZM23.7022 1.72982V9.68694H25.8557V7.09977L27.6914 9.68694H30.2368L27.9733 6.50199C30.5921 5.23274 29.6132 1.76666 26.8597 1.73026H23.7022V1.72982ZM33.6631 5.70816C34.3729 5.70816 34.9476 6.24498 34.9476 6.90416C34.9476 7.56291 34.3724 8.10016 33.6631 8.10016C32.9656 8.10016 32.3904 7.56291 32.3904 6.90416C32.3904 6.24498 32.9656 5.70816 33.6631 5.70816ZM33.2101 3.95078C33.7976 3.95078 34.3482 4.14595 34.8008 4.46304V4.15823H36.9055L36.9178 9.6865H34.7884L34.8008 9.34485C34.3482 9.66194 33.7976 9.84527 33.2101 9.84527C31.6436 9.84527 30.359 8.52734 30.359 6.90416C30.359 5.28099 31.6441 3.95078 33.2101 3.95078ZM38.0318 4.15823H40.2711V9.6865H38.0318V4.15823ZM39.1572 0.997395C39.8063 0.997395 40.3322 1.53421 40.3322 2.18112C40.3322 2.82802 39.8063 3.36484 39.1572 3.36484C38.4966 3.36484 37.9702 2.82758 37.9702 2.18112C37.9706 1.53465 38.4966 0.997395 39.1572 0.997395ZM56.1549 4.15823H58.3942V9.6865H56.1549V4.15823ZM57.2684 0.997395C57.9294 0.997395 58.4553 1.53421 58.4553 2.18112C58.4553 2.82802 57.9294 3.36484 57.2684 3.36484C56.6197 3.36484 56.0938 2.82758 56.0938 2.18112C56.0938 1.53465 56.6197 0.997395 57.2684 0.997395ZM40.6871 4.15823V5.91561H41.4581V9.6865H43.6244V5.91561H45.6557V9.6865H47.895V5.89149H49.29V4.18279H47.8335V2.95038C47.797 2.49909 48.8617 2.31576 49.2289 2.68197V0.875471C47.1729 0.228568 45.5088 1.38817 45.5207 3.18195V4.15823H43.6116V2.95038C43.587 2.49909 44.5176 2.31576 45.0554 2.68197V0.875471C43.2686 0.350931 41.36 1.21712 41.3723 3.16967V4.14595L40.6871 4.15823ZM52.4836 9.84527C54.405 9.83298 55.1144 9.04004 55.5308 7.88044H53.5853C52.704 9.0032 51.419 8.18569 51.4805 7.27038H55.5924C55.5924 5.02486 54.3927 3.96306 52.4841 3.96306C50.5755 3.96306 49.3762 5.30555 49.3762 6.941C49.3762 8.57646 50.7707 9.85754 52.4836 9.84527ZM51.7615 5.96473C51.7862 5.29327 53.2546 5.29327 53.3522 5.96473H51.7615ZM67.7311 9.84527C69.6643 9.83298 70.3745 9.04004 70.7901 7.88044H68.8323C67.9514 9.0032 66.6664 8.18569 66.7279 7.27038H70.8398C70.8398 5.02486 69.6529 3.96306 67.7315 3.96306C65.8224 3.96306 64.6236 5.30555 64.6236 6.941C64.6236 8.57646 66.0177 9.85754 67.7311 9.84527ZM67.009 5.96473C67.0336 5.29327 68.502 5.29327 68.5996 5.96473H67.009ZM64.0356 4.26831L63.3747 5.6108C62.5426 5.35423 61.7347 5.40335 61.7594 5.63492C61.784 5.7814 61.6494 6.03753 62.9463 6.22086C64.8796 6.52567 64.7208 10.1137 61.4779 9.84527C60.5847 9.7843 59.8626 9.55229 59.2632 9.19836L59.9853 7.75807C61.0012 8.25849 61.9797 8.55146 62.0531 8.05104C62.1389 7.4287 60.9884 7.64843 60.291 7.12345C59.0429 6.35462 59.7522 3.9749 61.7963 3.95034C62.518 3.9021 63.2647 4.02402 64.0356 4.26831ZM71.6961 4.15823V9.6865H73.789V6.30594C73.8501 5.46387 75.5142 5.31739 75.5265 6.30594V9.6865H77.6431V6.22086C77.5943 4.28059 75.5507 3.34072 73.7028 4.57312V4.15823H71.6961ZM24.9379 13.0671L23.543 21.268H27.4957C30.1756 21.268 31.2768 17.9489 29.3678 16.8138C30.9954 15.3126 30.1633 13.0552 28.4135 13.0307L24.9379 13.0671ZM26.5409 17.9607L26.2595 19.3155H27.1773C28.2173 19.3642 28.0951 17.9607 27.4957 17.9607H26.5409ZM27.0058 15.0196L26.7736 16.1182L27.055 16.1301C27.8994 16.1788 28.3888 15.0196 27.373 15.0196H27.0058ZM30.261 21.2803H32.6595L33.3816 19.84H36.0981L36.5018 21.3049H38.7165L36.7956 13.1157H34.5316L30.261 21.2803ZM34.1648 18.1195H35.6579L35.1807 15.959L34.1648 18.1195ZM39.4756 21.3049H41.6907L42.2532 16.1669L45.4226 21.2803H47.7965L48.7878 13.0666H46.5731L45.949 18.2046L42.7791 13.0421H40.491L39.4756 21.3049ZM50.3789 13.0425L48.8247 21.2803H51.1621L51.7862 18.2046L53.8786 21.2803H56.95L53.9521 16.9599L57.7825 13.0302H54.8087L52.1899 15.9345L52.6059 13.0302L50.3789 13.0425Z" fill="black"/>
</svg>
