<svg viewBox="0 0 36 36" fill="none" xmlns="http://www.w3.org/2000/svg">
<path d="M25 6V11.1111M11 6V11.1111M7.5 17.6481H12.75M7.5 21.0556H12.75M7.5 24.463H12.75M15.375 17.6481H20.625M15.375 21.0556H20.625M15.375 24.463H20.625M23.25 17.6481H28.5M23.25 21.0556H28.5M23.25 24.463H28.5M4.875 31H31.125C31.6082 31 32 30.6186 32 30.1481V9.40741C32 8.93694 31.6082 8.55556 31.125 8.55556H4.875C4.39175 8.55556 4 8.93694 4 9.40741V30.1481C4 30.6186 4.39175 31 4.875 31Z" stroke="#F58220" stroke-width="1.3" stroke-linejoin="round"/>
</svg>
