<svg viewBox="0 0 24 24" fill="none" xmlns="http://www.w3.org/2000/svg">
<g clip-path="url(#clip2)">
<path d="M20.7791 20.2009C20.5816 20.4137 20.379 20.6062 20.1612 20.8189C19.8319 21.133 19.4976 21.4622 19.1835 21.832C18.6719 22.3791 18.0692 22.6374 17.279 22.6374C17.203 22.6374 17.1219 22.6374 17.046 22.6323C15.5415 22.5361 14.1435 21.9485 13.095 21.447C10.228 20.0591 7.71049 18.0887 5.6185 15.5915C3.89121 13.5096 2.73631 11.5848 1.97144 9.5181C1.50036 8.25682 1.32814 7.27414 1.40412 6.34718C1.45477 5.75453 1.68271 5.26319 2.10314 4.84276L3.83043 3.11547C4.07863 2.88247 4.34203 2.75583 4.60036 2.75583C4.91948 2.75583 5.17781 2.94832 5.3399 3.11041L5.3551 3.1256C5.66409 3.41433 5.95788 3.71319 6.26687 4.0323C6.42389 4.1944 6.58598 4.35649 6.74808 4.52364L8.13092 5.90649C8.66785 6.44342 8.66785 6.93982 8.13092 7.47675C7.98403 7.62365 7.84219 7.77054 7.6953 7.91237C7.26981 8.34799 6.86458 8.75322 6.42389 9.14832C6.41376 9.15845 6.40363 9.16352 6.39857 9.17365C5.96294 9.60927 6.04399 10.0348 6.13517 10.3235L6.15036 10.3691C6.51 11.2403 7.01654 12.0609 7.78648 13.0385L7.79154 13.0436C9.18958 14.7658 10.6636 16.1081 12.2896 17.1364C12.4973 17.2681 12.71 17.3745 12.9126 17.4758L12.9468 17.4929C13.1164 17.5778 13.2764 17.6588 13.4141 17.7442C13.4344 17.7544 13.4546 17.7696 13.4749 17.7797C13.6471 17.8658 13.8092 17.9063 13.9763 17.9063C14.3968 17.9063 14.6602 17.6429 14.7463 17.5568L16.4786 15.8245C16.6509 15.6523 16.9244 15.4446 17.2435 15.4446C17.5576 15.4446 17.8159 15.6421 17.9729 15.8143L17.9831 15.8245L20.7741 18.6155C21.2958 19.1322 21.2958 19.664 20.7791 20.2009Z" fill="white"/>
<path d="M12.9691 5.70908C14.2962 5.93196 15.5018 6.56006 16.4642 7.52248C17.4266 8.4849 18.0497 9.69046 18.2776 11.0176C18.3333 11.3519 18.6221 11.5849 18.9513 11.5849C18.9918 11.5849 19.0273 11.5798 19.0678 11.5748C19.4427 11.514 19.6909 11.1594 19.6301 10.7846C19.3565 9.17886 18.5967 7.71497 17.4368 6.555C16.2768 5.39503 14.8129 4.63522 13.2072 4.36169C12.8324 4.30091 12.4828 4.54911 12.417 4.91888C12.3512 5.28866 12.5943 5.6483 12.9691 5.70908Z" fill="white"/>
<path d="M23.9723 10.5869C23.5215 7.94279 22.2754 5.53674 20.3607 3.62203C18.446 1.70732 16.04 0.461243 13.3958 0.0104253C13.0261 -0.0554245 12.6766 0.197844 12.6107 0.567615C12.5499 0.942452 12.7981 1.29196 13.173 1.35781C15.5334 1.75798 17.6862 2.87742 19.3983 4.58445C21.1104 6.29654 22.2248 8.44932 22.6249 10.8098C22.6807 11.1441 22.9694 11.3771 23.2986 11.3771C23.3392 11.3771 23.3746 11.372 23.4151 11.367C23.7849 11.3113 24.0382 10.9567 23.9723 10.5869Z" fill="white"/>
</g>
<defs>
<clipPath id="clip0">
<rect width="24" height="24" fill="white"/>
</clipPath>
</defs>
</svg>
