<svg viewBox="0 0 36 36" fill="none" xmlns="http://www.w3.org/2000/svg">
<path d="M4 24.6393V28.8197M4 28.8197V33M4 28.8197L12.0854 27.0984V22.918M17.1387 19.4754C17.1387 21.5125 15.4419 23.1639 13.3487 23.1639C11.2555 23.1639 9.55868 21.5125 9.55868 19.4754C9.55868 17.4383 11.2555 15.7869 13.3487 15.7869M17.1387 19.4754L13.3487 15.7869M17.1387 19.4754L21.6867 23.9016L24.1502 23.1025M13.3487 15.7869L6.77934 9.39344L13.3487 3L31.5407 20.7049L28.858 21.6401M13.0037 7.82143L19.6241 14.25L22.9343 17.4643M24.1502 23.1025L26.6137 22.3033L28.858 21.6401M24.1502 23.1025L27.3037 26.0357L32 24.5156L28.858 21.6401" stroke="#F58220" stroke-width="1.3" stroke-linejoin="round"/>
</svg>
