<svg viewBox="0 0 36 36" fill="none" xmlns="http://www.w3.org/2000/svg">
<path d="M30 2H6C5.44772 2 5 2.44772 5 3V33C5 33.5523 5.44771 34 6 34H24H30C30.5523 34 31 33.5523 31 33V27V3C31 2.44772 30.5523 2 30 2Z" stroke="#F58220" stroke-width="1.3" stroke-linejoin="round"/>
<path d="M28 21H15" stroke="#F58220" stroke-width="1.3" stroke-linejoin="round"/>
<path d="M28 10H15" stroke="#F58220" stroke-width="1.3" stroke-linejoin="round"/>
<path d="M28 16H15" stroke="#F58220" stroke-width="1.3" stroke-linejoin="round"/>
<path d="M28 27H15" stroke="#F58220" stroke-width="1.3" stroke-linejoin="round"/>
<path d="M9 20.2L10.5 22L13 19" stroke="#F58220" stroke-width="1.3" stroke-linejoin="round"/>
<path d="M9 9.2L10.5 11L13 8" stroke="#F58220" stroke-width="1.3" stroke-linejoin="round"/>
<path d="M9 15.2L10.5 17L13 14" stroke="#F58220" stroke-width="1.3" stroke-linejoin="round"/>
<path d="M9 26.2L10.5 28L13 25" stroke="#F58220" stroke-width="1.3" stroke-linejoin="round"/>
</svg>
