<svg viewBox="0 0 36 36" fill="none" xmlns="http://www.w3.org/2000/svg">
<path d="M18 33H30C30.5523 33 31 32.5523 31 32V9C31 8.49864 30.631 8.08346 30.1498 8.01115C30.0513 7.99634 29.9516 7.9851 29.8563 7.95578L23.5 6M18 33H6C5.44772 33 5 32.5523 5 32V9C5 8.49511 5.37417 8.07762 5.86034 8.00968C5.95236 7.99682 6.04532 7.98705 6.13467 7.96152L13 6M18 33V16.125M18 16.125L23.9405 12.3551C24.2796 12.1398 24.4571 11.7426 24.3911 11.3463L23.5 6M18 16.125L12.5595 12.3551C12.2204 12.1398 12.0429 11.7426 12.1089 11.3463L13 6M18 16.125L23.5 6M18 16.125L13 6M13 6L13.3607 3.8356C13.4411 3.35341 13.8583 3 14.3471 3H22.1529C22.6417 3 23.0589 3.35341 23.1393 3.8356L23.5 6M22 21H27" stroke="#F58220" stroke-width="1.3"/>
</svg>
