<svg viewBox="0 0 20 20" fill="none" xmlns="http://www.w3.org/2000/svg">
<path d="M16.9813 5.71387L12.668 9.99939L16.9813 14.2849C17.0592 14.1219 17.1065 13.9418 17.1065 13.7494V6.24939C17.1065 6.05698 17.0592 5.87684 16.9813 5.71387Z" fill="#F58220"/>
<path d="M15.8554 5H4.13318C3.94077 5 3.76063 5.04731 3.59766 5.12528L9.11051 10.6104C9.59795 11.0978 10.3906 11.0978 10.8781 10.6104L16.3909 5.12528C16.2279 5.04731 16.0478 5 15.8554 5Z" fill="#F58220"/>
<path d="M3.012 5.71387C2.93402 5.87684 2.88672 6.05698 2.88672 6.24939V13.7494C2.88672 13.9418 2.93402 14.122 3.012 14.2849L7.3253 9.99939L3.012 5.71387Z" fill="#F58220"/>
<path d="M12.0776 10.5898L11.4673 11.2002C10.6551 12.0124 9.33348 12.0124 8.52129 11.2002L7.91096 10.5898L3.59766 14.8754C3.76063 14.9533 3.94077 15.0006 4.13318 15.0006H15.8554C16.0478 15.0006 16.2279 14.9533 16.3909 14.8754L12.0776 10.5898Z" fill="#F58220"/>
</svg>
