<svg viewBox="0 0 20 20" fill="none" xmlns="http://www.w3.org/2000/svg">
<path d="M15.4787 2.5H4.5213C3.40499 2.5 2.5 3.40494 2.5 4.52128V15.4786C2.5 16.595 3.40495 17.4999 4.5213 17.4999H9.92542L9.93463 12.1398H8.54205C8.36108 12.1398 8.21419 11.9934 8.21349 11.8125L8.20681 10.0847C8.20612 9.90269 8.35344 9.75481 8.53541 9.75481H9.92546V8.08532C9.92546 6.14788 11.1087 5.09293 12.8371 5.09293H14.2553C14.4367 5.09293 14.5839 5.24004 14.5839 5.42153V6.87842C14.5839 7.05983 14.4368 7.2069 14.2555 7.20701L13.3851 7.20742C12.4452 7.20742 12.2632 7.65405 12.2632 8.30952V9.75485H14.3285C14.5253 9.75485 14.678 9.92669 14.6548 10.1221L14.45 11.8499C14.4304 12.0153 14.2902 12.1398 14.1237 12.1398H12.2724L12.2632 17.5H15.4787C16.5951 17.5 17.5 16.5951 17.5 15.4788V4.52128C17.5 3.40494 16.595 2.5 15.4787 2.5Z" fill="#F58220"/>
</svg>
