<svg width="36" height="36" viewBox="0 0 36 36" fill="none" xmlns="http://www.w3.org/2000/svg">
<path d="M28.5907 17.9584C27.0472 8.41198 25.2317 5.98788 17.1058 6.00005M28.5907 17.9584H25.8022V26.0592H28.5907M28.5907 17.9584V26.0592M28.5907 17.9584C29.9213 17.9584 31 18.9666 31 20.2103V24.1826C31 25.219 30.1011 26.0592 28.9923 26.0592L28.5907 26.0592M7.40927 17.9584C8.95279 8.41198 11.7312 5.98788 18.8942 6.00005M7.40927 17.9584H10.1978V26.0592H7.40927M7.40927 17.9584V26.0592M7.40927 17.9584C6.07867 17.9584 5 18.9666 5 20.2103V24.1826C5 25.219 5.89889 26.0592 7.00772 26.0592L7.40927 26.0592M19.8571 27.6022L21.0952 29.9167C21.0952 29.9167 24.8316 30.4625 27.2929 28.7595C28.694 27.79 28.5309 26.0592 28.5309 26.0592" stroke="#F58220" stroke-width="1.3"/>
</svg>
