<svg viewBox="0 0 36 36" fill="none" xmlns="http://www.w3.org/2000/svg">
<path d="M15.2609 17.6781L13.9404 18.9986L11.2993 21.6397C11.2993 21.6397 8.32672 20.8418 6.73104 21.6397C5.60272 22.2038 4.96518 22.7737 4.44689 23.9238C3.7582 25.4521 3.8847 26.7605 4.73241 28.2066C5.58011 29.6527 6.34622 30.4188 7.79231 31.2665C9.2384 32.1142 10.5469 32.2407 12.0751 31.552C13.2252 31.0337 13.7951 30.3962 14.3592 29.2679C15.1571 27.6722 14.3592 24.6996 14.3592 24.6996L17.0003 22.0585L17.6605 21.3983M17.2417 15.6973L17.902 15.0371L19.2225 13.7165L21.8635 11.0755C21.8635 11.0755 21.1118 7.81215 22.149 6.22169C23.538 4.09195 28.4304 4.50857 28.4304 4.50857L25.2897 7.64928L25.5447 10.4542L28.3496 10.7092L31.4904 7.56848C31.4904 7.56848 31.907 12.4609 29.7772 13.8499C28.1868 14.8871 24.9234 14.1354 24.9234 14.1354L22.2824 16.7765L20.9619 18.097" stroke="#F58220" stroke-width="1.3"/>
<path d="M11.0804 24.9227L11.6574 27.0762L10.0809 28.6527L7.92741 28.0757L7.35037 25.9221L8.92687 24.3457L11.0804 24.9227Z" stroke="#F58220" stroke-width="1.3"/>
<path d="M7.0395 10.7446L5.32639 6.74734L6.46847 5.60526L10.4657 7.31838L11.0368 9.03149L19.6023 17.597L22.8046 18.6645C22.9519 18.7136 23.0857 18.7963 23.1955 18.906L31.458 27.1686C31.8486 27.5591 31.8486 28.1923 31.458 28.5828L28.3039 31.7369C27.9134 32.1274 27.2803 32.1274 26.8897 31.7369L18.6272 23.4743C18.5174 23.3646 18.4347 23.2307 18.3856 23.0835L17.3182 19.8812L8.75262 11.3156L7.0395 10.7446Z" stroke="#F58220" stroke-width="1.3"/>
</svg>
