<svg viewBox="0 0 20 20" fill="none" xmlns="http://www.w3.org/2000/svg">
<path d="M17.4619 6.91005C17.4267 6.11304 17.2978 5.56511 17.1132 5.09031C16.9226 4.58633 16.6296 4.13511 16.2456 3.76002C15.8704 3.37908 15.4161 3.08308 14.9179 2.89559C14.4403 2.71096 13.8951 2.58207 13.0979 2.54693C12.2948 2.50881 12.0398 2.5 10.0029 2.5C7.96599 2.5 7.71104 2.50881 6.9109 2.54395C6.11373 2.57909 5.56569 2.70809 5.09092 2.89261C4.58673 3.08308 4.13542 3.3761 3.76026 3.76002C3.37925 4.13511 3.0833 4.5893 2.89566 5.08745C2.711 5.56511 2.58209 6.11007 2.54694 6.90708C2.50882 7.71004 2.5 7.96495 2.5 10.0015C2.5 12.038 2.50882 12.2929 2.54396 13.0929C2.57911 13.8899 2.70813 14.4379 2.8928 14.9127C3.0833 15.4166 3.37925 15.8679 3.76026 16.243C4.13542 16.6239 4.5897 16.9199 5.08794 17.1074C5.56569 17.292 6.11076 17.4209 6.90803 17.456C7.70806 17.4913 7.96313 17.5 10.0001 17.5C12.037 17.5 12.2919 17.4913 13.0921 17.456C13.8892 17.4209 14.4373 17.292 14.9121 17.1074C15.9203 16.7176 16.7175 15.9206 17.1073 14.9127C17.2919 14.435 17.4209 13.8899 17.456 13.0929C17.4912 12.2929 17.5 12.038 17.5 10.0015C17.5 7.96495 17.497 7.71004 17.4619 6.91005ZM16.1108 13.0343C16.0785 13.7669 15.9555 14.1625 15.8529 14.4262C15.6008 15.0797 15.0821 15.5983 14.4285 15.8504C14.1647 15.9529 13.7662 16.076 13.0363 16.1081C12.245 16.1434 12.0077 16.1521 10.0059 16.1521C8.00412 16.1521 7.76381 16.1434 6.97535 16.1081C6.24264 16.076 5.84698 15.9529 5.58321 15.8504C5.25796 15.7302 4.9619 15.5397 4.72159 15.2906C4.47247 15.0474 4.28197 14.7544 4.16176 14.4292C4.05918 14.1654 3.93611 13.7669 3.90394 13.0373C3.86867 12.2461 3.85997 12.0087 3.85997 10.0073C3.85997 8.00593 3.86867 7.76567 3.90394 6.97747C3.93611 6.24491 4.05918 5.84932 4.16176 5.5856C4.28197 5.26029 4.47247 4.9644 4.72457 4.72403C4.96773 4.47496 5.26082 4.28449 5.58618 4.16442C5.84996 4.06186 6.2486 3.93881 6.97833 3.90653C7.76965 3.87139 8.00709 3.86257 10.0088 3.86257C12.0135 3.86257 12.2508 3.87139 13.0393 3.90653C13.772 3.93881 14.1677 4.06186 14.4314 4.16442C14.7567 4.28449 15.0528 4.47496 15.2931 4.72403C15.5422 4.96726 15.7327 5.26029 15.8529 5.5856C15.9555 5.84932 16.0785 6.24777 16.1108 6.97747C16.146 7.76865 16.1548 8.00593 16.1548 10.0073C16.1548 12.0087 16.146 12.2431 16.1108 13.0343Z" fill="#F58220"/>
<path d="M16.1108 13.0343C16.0785 13.7669 15.9555 14.1625 15.8529 14.4262C15.6008 15.0797 15.0821 15.5983 14.4285 15.8504C14.1647 15.9529 13.7662 16.076 13.0363 16.1081C12.245 16.1434 12.0077 16.1521 10.0059 16.1521C8.00412 16.1521 7.76381 16.1434 6.97535 16.1081C6.24264 16.076 5.84698 15.9529 5.58321 15.8504C5.25796 15.7302 4.9619 15.5397 4.72159 15.2906C4.47247 15.0474 4.28197 14.7544 4.16176 14.4292C4.05918 14.1654 3.93611 13.7669 3.90394 13.0373C3.86867 12.2461 3.85997 12.0087 3.85997 10.0073C3.85997 8.00593 3.86867 7.76567 3.90394 6.97747C3.93611 6.24491 4.05918 5.84932 4.16176 5.5856C4.28197 5.26029 4.47247 4.9644 4.72457 4.72403C4.96773 4.47496 5.26082 4.28449 5.58618 4.16442C5.84996 4.06186 6.2486 3.93881 6.97833 3.90653C7.76965 3.87139 8.00709 3.86257 10.0088 3.86257C12.0135 3.86257 12.2508 3.87139 13.0393 3.90653C13.772 3.93881 14.1677 4.06186 14.4314 4.16442C14.7567 4.28449 15.0528 4.47496 15.2931 4.72403C15.5422 4.96726 15.7327 5.26029 15.8529 5.5856C15.9555 5.84932 16.0785 6.24777 16.1108 6.97747C16.146 7.76865 16.1548 8.00593 16.1548 10.0073C16.1548 12.0087 16.146 12.2431 16.1108 13.0343Z" fill="#F58220"/>
<path d="M10 6.25C7.92972 6.25 6.25 7.92961 6.25 10C6.25 12.0704 7.92972 13.75 10 13.75C12.0704 13.75 13.75 12.0704 13.75 10C13.75 7.92961 12.0704 6.25 10 6.25ZM10 12.4325C8.65691 12.4325 7.56747 11.3432 7.56747 10C7.56747 8.6568 8.65691 7.56747 10 7.56747C11.3432 7.56747 12.4325 8.6568 12.4325 10C12.4325 11.3432 11.3432 12.4325 10 12.4325Z" fill="white"/>
<path d="M15.25 5.875C15.25 6.49626 14.7463 7 14.1249 7C13.5037 7 13 6.49626 13 5.875C13 5.25359 13.5037 4.75 14.1249 4.75C14.7463 4.75 15.25 5.25359 15.25 5.875Z" fill="white"/>
</svg>
