<svg viewBox="0 0 140 32" fill="none" xmlns="http://www.w3.org/2000/svg">
<path fill-rule="evenodd" clip-rule="evenodd" d="M38.1435 21.2675L32.8272 16.8716L33.3081 13.38C33.327 13.2452 33.2835 13.1089 33.189 13.0065C33.0945 12.9041 32.9579 12.8455 32.8145 12.8455H30.02C29.7697 12.8455 29.5586 13.0217 29.5261 13.2572L29.4167 14.051L27.4022 12.3855C27.2425 12.2533 27.0122 12.2316 26.8279 12.3316L10.4103 21.2533C10.214 21.3599 10.118 21.5782 10.1759 21.7854C10.2339 21.9927 10.4317 22.1369 10.6573 22.1369H16.2688C15.1768 26.9679 13.2715 31.0538 11.3516 31.0538C8.53098 31.0538 5.51084 23.2314 5.51084 13.0716C5.51084 12.8106 5.2881 12.5989 5.01285 12.5989C4.73797 12.5989 4.51487 12.8106 4.51487 13.0716C4.51487 23.1262 7.51799 32 11.3516 32H26.0542C28.5648 32 30.7719 27.6973 31.9917 22.1369H37.8642C37.8665 22.1369 37.8686 22.1365 37.8719 22.1369C38.1468 22.1369 38.3698 21.9254 38.3698 21.664C38.3698 21.4978 38.2797 21.3516 38.1435 21.2675ZM27.3175 11.2308C26.2198 2.37501 23.317 0 21.0751 0C20.989 0 20.9031 0.00379354 20.818 0.0117248H6.48001C6.44524 0.00448287 6.40903 0 6.37209 0C3.50116 0 1.06121 4.80243 0.00512072 11.7026C-0.015523 11.8385 0.026851 11.9764 0.121377 12.0802C0.149627 12.1109 0.182223 12.1364 0.216991 12.1592C0.302825 12.2206 0.407855 12.255 0.51723 12.255H15.2232C15.4705 12.255 15.6806 12.0827 15.7161 11.8499C16.6628 5.64388 18.8243 0.957659 21.0943 0.957659C21.1208 0.957659 21.1465 0.953867 21.1722 0.950075C23.6835 1.04077 25.5599 5.14315 26.3284 11.3415C26.3606 11.6008 26.6091 11.7854 26.8811 11.7561C27.1545 11.7257 27.3498 11.4905 27.3175 11.2308Z" fill="#F58220"/>
<path fill-rule="evenodd" clip-rule="evenodd" d="M107.719 17.8726V24.1869H108.485V24.1889L108.506 24.1893C108.838 24.2005 109.097 24.4656 109.086 24.7816L108.999 26.9415V26.9659C108.999 27.2834 108.729 27.5406 108.396 27.5406H107.806C107.472 27.5406 107.202 27.2834 107.202 26.9659V25.8661H100.618V26.9659C100.618 27.2834 100.348 27.5406 100.014 27.5406H99.4249V27.5385C99.1019 27.5385 98.835 27.2954 98.8238 26.9859L98.7361 24.8312C98.7333 24.8084 98.7323 24.7847 98.7323 24.7616C98.7323 24.4445 99.0021 24.1869 99.3362 24.1869H99.9979C100.073 24.0794 100.162 23.947 100.256 23.8002C100.452 23.4922 100.683 23.0995 100.886 22.6732L100.899 22.644C101.099 22.2133 101.25 21.7786 101.349 21.2627C101.452 20.7353 101.503 20.1062 101.503 19.2927V17.8726C101.503 17.5555 101.774 17.298 102.107 17.298H107.116C107.45 17.298 107.719 17.5555 107.719 17.8726ZM105.867 24.1869V18.9772H103.334V19.2823C103.334 20.1557 103.254 20.8808 103.137 21.4827C103.019 22.0913 102.864 22.5656 102.715 22.9391C102.585 23.2655 102.407 23.6298 102.199 24.0006C102.164 24.0625 102.129 24.1249 102.092 24.1869H105.867ZM90.5705 24.4305C90.3702 24.0534 90.2723 23.6458 90.2576 23.2495C90.2547 23.2271 90.2534 23.2051 90.2534 23.1823C90.2534 22.8652 90.5235 22.608 90.8565 22.608H91.5025C91.8355 22.608 92.106 22.8652 92.106 23.1823C92.106 23.3518 92.1404 23.493 92.1921 23.6098C92.2572 23.7562 92.3509 23.8706 92.4411 23.9549L92.4445 23.9582C92.6436 24.1325 92.9347 24.2473 93.2657 24.3205C93.6363 24.4029 94.0563 24.4305 94.4632 24.4305C94.9131 24.4305 95.25 24.3985 95.5067 24.3473C95.7354 24.3013 95.8959 24.2421 96.0135 24.1781L96.0144 24.1785L96.0191 24.1761C96.1862 24.0873 96.3364 23.9494 96.4428 23.7726C96.539 23.6118 96.5978 23.4158 96.5978 23.1931C96.5978 23.0467 96.5679 22.9276 96.5231 22.8308C96.4774 22.734 96.4167 22.6553 96.3532 22.5921C96.2468 22.4892 96.0956 22.394 95.8707 22.3201C95.601 22.2322 95.2379 22.1777 94.7414 22.1777H93.5728C93.2396 22.1777 92.9691 21.9206 92.9691 21.6034V21.0736C92.9691 20.7561 93.2396 20.4984 93.5728 20.4984H94.6854C94.9318 20.4984 95.2015 20.4897 95.4498 20.4481C95.6542 20.4137 95.8427 20.3601 95.9836 20.2729L96.007 20.2565C96.0863 20.2025 96.1684 20.1265 96.2226 20.0222L96.2254 20.023V20.0222C96.2692 19.9394 96.2972 19.8298 96.2972 19.685C96.2972 19.5523 96.2711 19.4463 96.2328 19.3632C96.1834 19.2532 96.1078 19.1724 96.0434 19.1175C95.9024 18.998 95.684 18.9128 95.4367 18.8528C95.055 18.7604 94.6219 18.7333 94.2626 18.7333C93.7632 18.7333 93.389 18.7844 93.1103 18.8668C92.8821 18.9344 92.7267 19.02 92.6222 19.1115L92.5979 19.1339C92.5226 19.1996 92.4563 19.2863 92.4055 19.3891C92.3576 19.4875 92.3223 19.6011 92.3059 19.7271C92.2941 20.0346 92.0287 20.281 91.7024 20.281H91.0573V20.2797C91.0438 20.2797 91.0304 20.2794 91.0174 20.2786C90.6852 20.2573 90.4336 19.9842 90.4563 19.6678C90.4907 19.1724 90.6571 18.7313 90.9262 18.3605C91.2039 17.9782 91.5894 17.6759 92.0493 17.4707C92.2467 17.3827 92.5159 17.2828 92.8809 17.2052C93.2358 17.13 93.6764 17.0752 94.2178 17.0752C94.8347 17.0752 95.4815 17.1348 96.062 17.2919C96.5716 17.4295 97.0318 17.6439 97.3846 17.9594C97.3995 17.9711 97.4135 17.9834 97.4275 17.9962C97.6431 18.2018 97.8317 18.4593 97.9623 18.7584C98.0799 19.0288 98.1499 19.3295 98.1499 19.653C98.1499 20.0274 98.0678 20.3337 97.9567 20.578C97.8559 20.8024 97.7271 20.9751 97.6161 21.0999C97.6058 21.1135 97.5937 21.1267 97.5825 21.1392C97.5348 21.1891 97.4854 21.2367 97.4331 21.2815C97.5423 21.3531 97.6441 21.4307 97.7346 21.5134C97.7477 21.5238 97.7598 21.5347 97.7729 21.5467C97.9147 21.6827 98.0921 21.8906 98.2339 22.1817C98.3711 22.4629 98.4719 22.8192 98.4719 23.2563C98.4719 23.6894 98.3795 24.0601 98.2358 24.3756C98.0902 24.6924 97.8961 24.9463 97.6907 25.1483L97.6879 25.1507C97.2464 25.5842 96.7191 25.8221 96.1535 25.9497C95.6308 26.0676 95.0904 26.0889 94.5631 26.0889C93.9014 26.0889 93.327 26.0449 92.8217 25.9413C92.2879 25.8322 91.8351 25.6566 91.4475 25.3987L91.4269 25.385C91.0418 25.1195 90.7616 24.7891 90.5705 24.4305ZM83.8829 18.9772V20.6365H88.3324C88.6658 20.6365 88.9363 20.8936 88.9363 21.2112V21.741C88.9363 22.0582 88.6658 22.3157 88.3324 22.3157H83.8829V24.1869H88.9337C89.2669 24.1869 89.5373 24.4445 89.5373 24.7616V25.2915C89.5373 25.609 89.2669 25.8661 88.9337 25.8661H82.6339C82.3008 25.8661 82.0303 25.609 82.0303 25.2915V17.8726C82.0303 17.5555 82.3008 17.298 82.6339 17.298H88.7666C89.1001 17.298 89.3705 17.5555 89.3705 17.8726V18.4025C89.3705 18.7201 89.1001 18.9772 88.7666 18.9772H83.8829ZM75.2259 18.9772V20.6365H79.6754C80.0089 20.6365 80.2793 20.8936 80.2793 21.2112V21.741C80.2793 22.0582 80.0089 22.3157 79.6754 22.3157H75.2259V24.1869H80.2768C80.6098 24.1869 80.8803 24.4445 80.8803 24.7616V25.2915C80.8803 25.609 80.6098 25.8661 80.2768 25.8661H73.9769C73.6438 25.8661 73.3734 25.609 73.3734 25.2915V17.8726C73.3734 17.5555 73.6438 17.298 73.9769 17.298H80.1097C80.4431 17.298 80.7136 17.5555 80.7136 17.8726V18.4025C80.7136 18.7201 80.4431 18.9772 80.1097 18.9772H75.2259ZM64.3938 25.2915V17.8726C64.3938 17.5555 64.6639 17.298 64.9974 17.298H68.4141C69.1688 17.298 69.708 17.3732 70.0944 17.4695C70.5203 17.5751 70.7752 17.7115 70.9306 17.8102L70.9303 17.8107C71.2234 17.9946 71.543 18.2858 71.7656 18.7113C71.9336 19.0332 72.0453 19.4291 72.0453 19.9074C72.0453 20.2937 71.9731 20.6393 71.8568 20.938C71.7157 21.2987 71.5111 21.5867 71.2898 21.7978C70.8886 22.1797 70.3645 22.3945 69.8101 22.512C69.2985 22.62 68.7778 22.6444 68.3141 22.6444H66.2465V25.2915C66.2465 25.609 65.9764 25.8661 65.6429 25.8661H64.9974C64.6639 25.8661 64.3938 25.609 64.3938 25.2915ZM68.2363 18.9772H66.2465V20.9652H68.2473C68.619 20.9652 68.9806 20.9491 69.2805 20.8908C69.5337 20.842 69.7471 20.7648 69.8848 20.6433C69.9705 20.5673 70.039 20.4657 70.0877 20.3509C70.1419 20.2214 70.1704 20.0753 70.1704 19.929C70.1704 19.7466 70.1314 19.5967 70.0679 19.4791C70.0007 19.3544 69.9038 19.2595 69.7991 19.1968L69.7849 19.188C69.729 19.1528 69.6341 19.1084 69.4396 19.0676C69.1931 19.0156 68.8185 18.9772 68.2363 18.9772ZM57.5894 18.9772V20.6365H62.0389C62.3724 20.6365 62.6425 20.8936 62.6425 21.2112V21.741C62.6425 22.0582 62.3724 22.3157 62.0389 22.3157H57.5894V24.1869H62.6399C62.9734 24.1869 63.2439 24.4445 63.2439 24.7616V25.2915C63.2439 25.609 62.9734 25.8661 62.6399 25.8661H56.3404C56.0069 25.8661 55.7369 25.609 55.7369 25.2915V17.8726C55.7369 17.5555 56.0069 17.298 56.3404 17.298H62.4732C62.8063 17.298 63.0767 17.5555 63.0767 17.8726V18.4025C63.0767 18.7201 62.8063 18.9772 62.4732 18.9772H57.5894ZM52.3109 18.9772H48.1534V25.2915C48.1534 25.609 47.8834 25.8661 47.5499 25.8661H46.9043C46.5709 25.8661 46.3008 25.609 46.3008 25.2915V17.8726C46.3008 17.5555 46.5709 17.298 46.9043 17.298H53.56C53.8935 17.298 54.164 17.5555 54.164 17.8726V25.2915C54.164 25.609 53.8935 25.8661 53.56 25.8661H52.9144C52.5814 25.8661 52.3109 25.609 52.3109 25.2915V18.9772Z" fill="#F58220"/>
<path fill-rule="evenodd" clip-rule="evenodd" d="M128.14 13.8466V6.42771C128.14 6.11059 128.41 5.85303 128.744 5.85303H129.389C129.722 5.85303 129.992 6.11059 129.992 6.42771V13.8466C129.992 14.1641 129.722 14.4212 129.389 14.4212H128.744C128.41 14.4212 128.14 14.1641 128.14 13.8466ZM136.55 4.96403C136.57 4.92484 136.585 4.87965 136.59 4.82966V4.81686C136.59 4.49973 136.86 4.24219 137.193 4.24219H137.794V4.24378L137.827 4.24458C138.159 4.26178 138.413 4.53213 138.395 4.84805C138.379 5.1228 138.307 5.35715 138.206 5.55471C138.114 5.73506 138.001 5.88304 137.886 6.00381C137.873 6.0198 137.859 6.035 137.842 6.04979C137.567 6.31254 137.231 6.4753 136.863 6.57009C136.533 6.65527 136.183 6.68446 135.835 6.68446C135.481 6.68446 135.128 6.65167 134.794 6.56289C134.431 6.46571 134.1 6.30294 133.828 6.047L133.827 6.0462C133.612 5.84984 133.475 5.63549 133.389 5.42353C133.313 5.23717 133.28 5.05721 133.268 4.89564C133.264 4.87005 133.261 4.84366 133.261 4.81686C133.261 4.49973 133.532 4.24219 133.865 4.24219H134.466V4.24419C134.791 4.24419 135.058 4.49013 135.067 4.80127C135.069 4.85965 135.084 4.90724 135.103 4.94523L135.102 4.94643C135.125 4.98882 135.155 5.01642 135.176 5.03041L135.175 5.03161L135.183 5.03722C135.247 5.0832 135.355 5.1116 135.464 5.12959C135.599 5.15159 135.743 5.15359 135.835 5.15359C135.985 5.15359 136.161 5.14359 136.309 5.1112C136.381 5.09521 136.442 5.07721 136.474 5.05681L136.492 5.04361C136.509 5.03161 136.53 5.00522 136.55 4.96403ZM133.545 6.42771V11.5042L138.21 6.10178C138.319 5.95182 138.501 5.85303 138.707 5.85303H139.397C139.73 5.85303 140.001 6.11059 140.001 6.42771V13.8466C140.001 14.1641 139.73 14.4212 139.397 14.4212H138.751C138.418 14.4212 138.148 14.1641 138.148 13.8466V8.74722L133.466 14.194C133.356 14.3321 133.182 14.4212 132.986 14.4212H132.296C131.963 14.4212 131.692 14.1641 131.692 13.8466V6.42771C131.692 6.11059 131.963 5.85303 132.296 5.85303H132.941C133.275 5.85303 133.545 6.11059 133.545 6.42771ZM120.394 5.85303H121.04C121.372 5.85303 121.643 6.11059 121.643 6.42771V9.07515H123.722C124.284 9.07515 124.832 9.11074 125.33 9.22189C125.877 9.34389 126.361 9.5566 126.737 9.90853L126.74 9.91095C127.032 10.1893 127.215 10.5004 127.324 10.8148C127.429 11.1179 127.464 11.4195 127.464 11.695C127.464 12.0013 127.429 12.3188 127.319 12.6384C127.205 12.972 127.015 13.2939 126.709 13.5854L126.707 13.5842L126.706 13.5854C126.374 13.9013 125.965 14.1153 125.47 14.2481C125.014 14.3693 124.49 14.4212 123.888 14.4212H120.394C120.061 14.4212 119.79 14.1641 119.79 13.8466V6.42771C119.79 6.11059 120.061 5.85303 120.394 5.85303ZM123.733 10.7544H121.643V12.7419H123.888C124.182 12.7419 124.505 12.7284 124.786 12.6732V12.6735L124.788 12.6732C125.016 12.6284 125.218 12.558 125.343 12.4464L125.358 12.4329C125.456 12.3445 125.512 12.2249 125.545 12.1105C125.584 11.9753 125.589 11.8429 125.589 11.7586C125.589 11.6426 125.581 11.5086 125.542 11.3862C125.51 11.2835 125.453 11.1807 125.358 11.0951L125.355 11.0931C125.201 10.9524 124.954 10.87 124.688 10.8211C124.375 10.7636 124.025 10.7544 123.733 10.7544ZM116.238 10.7544H111.946V13.8466C111.946 14.1641 111.677 14.4212 111.343 14.4212H110.698C110.364 14.4212 110.095 14.1641 110.095 13.8466V6.42771C110.095 6.11059 110.364 5.85303 110.698 5.85303H111.343C111.677 5.85303 111.946 6.11059 111.946 6.42771V9.07515H116.238V6.42771C116.238 6.11059 116.509 5.85303 116.842 5.85303H117.487C117.821 5.85303 118.091 6.11059 118.091 6.42771V13.8466C118.091 14.1641 117.821 14.4212 117.487 14.4212H116.842C116.509 14.4212 116.238 14.1641 116.238 13.8466V10.7544ZM104.182 13.8466V7.53228H101.691C101.358 7.53228 101.088 7.27514 101.088 6.9576V6.42771C101.088 6.11059 101.358 5.85303 101.691 5.85303H108.526C108.859 5.85303 109.129 6.11059 109.129 6.42771V6.9576C109.129 7.27514 108.859 7.53228 108.526 7.53228H106.035V13.8466C106.035 14.1641 105.764 14.4212 105.431 14.4212H104.786C104.453 14.4212 104.182 14.1641 104.182 13.8466ZM99.0345 12.0577H95.5298L94.5787 14.0385C94.4957 14.2616 94.2717 14.4212 94.0094 14.4212H93.2971V14.4204C93.2126 14.4204 93.1265 14.4036 93.0447 14.3672C92.7427 14.2349 92.6112 13.8941 92.7502 13.6062L96.3287 6.22256C96.4155 6.00661 96.6349 5.85303 96.8925 5.85303H97.6933V5.85424C97.921 5.85464 98.1385 5.97822 98.2402 6.18777L101.82 13.5726C101.866 13.6538 101.892 13.7473 101.892 13.8466C101.892 14.1641 101.622 14.4212 101.289 14.4212H100.576C100.349 14.4208 100.132 14.298 100.029 14.0889L99.0345 12.0577ZM97.2929 8.29931L96.3175 10.3785H98.2682L97.2929 8.29931ZM86.8089 6.42771V8.67284L90.342 6.00141C90.4491 5.90943 90.591 5.85303 90.7464 5.85303H91.6036V5.85464C91.7805 5.85464 91.956 5.92862 92.0749 6.07099C92.282 6.31894 92.2387 6.67966 91.9787 6.87682L87.9757 9.90736L92.0963 13.385C92.2445 13.4898 92.3408 13.6573 92.3408 13.8466C92.3408 14.1641 92.0703 14.4212 91.7368 14.4212H90.791V14.4188C90.6482 14.4188 90.5049 14.3708 90.3903 14.2733L86.8089 11.2271V13.8466C86.8089 14.1641 86.5385 14.4212 86.2055 14.4212H85.5595C85.2264 14.4212 84.9564 14.1641 84.9564 13.8466V6.42771C84.9564 6.11059 85.2264 5.85303 85.5595 5.85303H86.2055C86.5385 5.85303 86.8089 6.11059 86.8089 6.42771ZM76.8008 6.42771V11.5042L81.4662 6.10178C81.575 5.95182 81.7569 5.85303 81.963 5.85303H82.6531C82.9865 5.85303 83.2562 6.11059 83.2562 6.42771V13.8466C83.2562 14.1641 82.9865 14.4212 82.6531 14.4212H82.0072C81.6741 14.4212 81.4036 14.1641 81.4036 13.8466V8.74722L76.7227 14.194C76.6118 14.3321 76.4384 14.4212 76.2418 14.4212H75.5518C75.2183 14.4212 74.9482 14.1641 74.9482 13.8466V6.42771C74.9482 6.11059 75.2183 5.85303 75.5518 5.85303H76.1973C76.5304 5.85303 76.8008 6.11059 76.8008 6.42771ZM66.6017 14.2988C66.2665 14.4005 65.8843 14.4492 65.4718 14.4212H65.466C65.1326 14.4212 64.8625 14.1641 64.8625 13.8466V13.3379H64.8641C64.8641 13.3194 64.865 13.3007 64.8671 13.2818C64.8994 12.9671 65.1943 12.7367 65.5248 12.7679C65.7121 12.786 65.8616 12.7696 65.9792 12.7372C66.1258 12.6964 66.222 12.6308 66.2774 12.5812L66.2799 12.5788C66.4295 12.4468 66.5294 12.2249 66.6004 11.9721C66.6873 11.6646 66.7281 11.3255 66.7579 11.0187L66.7592 11.0055C66.8024 10.5716 66.8268 10.1909 66.8402 9.80903C66.8524 9.4719 66.855 9.06475 66.855 8.57926V6.42771C66.855 6.11059 67.125 5.85303 67.4581 5.85303H72.645C72.9785 5.85303 73.2482 6.11059 73.2482 6.42771V13.8466C73.2482 14.1641 72.9785 14.4212 72.645 14.4212H71.9991C71.666 14.4212 71.3959 14.1641 71.3959 13.8466V7.53228H68.7071V8.57926C68.7071 8.90681 68.6886 9.41112 68.6575 9.94421C68.629 10.4301 68.5903 10.9292 68.5466 11.3211C68.5046 11.6866 68.4442 12.1057 68.3169 12.5152C68.1817 12.9491 67.9739 13.3662 67.642 13.6973C67.6307 13.7098 67.6189 13.7218 67.6068 13.7337C67.3568 13.9717 67.0133 14.174 66.6017 14.2988ZM58.7327 7.53228V9.1915H63.1824C63.5156 9.1915 63.7856 9.44868 63.7856 9.76618V10.2961C63.7856 10.6136 63.5156 10.8708 63.1824 10.8708H58.7327V12.7419H63.7831C64.1165 12.7419 64.3867 12.9995 64.3867 13.3166V13.8466C64.3867 14.1641 64.1165 14.4212 63.7831 14.4212H57.4836C57.1501 14.4212 56.8801 14.1641 56.8801 13.8466V6.42771C56.8801 6.11059 57.1501 5.85303 57.4836 5.85303H63.6164C63.9494 5.85303 64.2199 6.11059 64.2199 6.42771V6.9576C64.2199 7.27514 63.9494 7.53228 63.6164 7.53228H58.7327ZM54.6905 6.42771V12.7419H55.4558V12.744L55.4773 12.7444C55.8091 12.7556 56.0686 13.0207 56.0572 13.3371L55.9699 15.497L55.9703 15.5209C55.9703 15.8385 55.7002 16.0956 55.3667 16.0956H54.7771C54.4436 16.0956 54.1731 15.8385 54.1731 15.5209V14.4212H47.5893V15.5209C47.5893 15.8385 47.3188 16.0956 46.9857 16.0956H46.396V16.0936C46.0731 16.094 45.8064 15.8505 45.7946 15.5414L45.7077 13.3863C45.7048 13.3634 45.7031 13.3402 45.7031 13.3166C45.7031 12.9995 45.9735 12.7419 46.3066 12.7419H46.9689C47.0441 12.6344 47.1336 12.5024 47.2273 12.3552C47.4234 12.0473 47.6544 11.6546 47.8573 11.2283L47.8699 11.1991C48.0702 10.7684 48.2214 10.3337 48.321 9.81817C48.423 9.29029 48.4747 8.66124 48.4747 7.84781V6.42771C48.4747 6.11059 48.7451 5.85303 49.0782 5.85303H54.0867C54.4201 5.85303 54.6905 6.11059 54.6905 6.42771ZM52.838 12.7419V7.53228H50.305V7.83742C50.305 8.71083 50.2248 9.43586 50.108 10.0377C49.99 10.646 49.835 11.1207 49.6863 11.4946C49.5561 11.821 49.3781 12.1853 49.1701 12.5556C49.1357 12.6176 49.1 12.68 49.0634 12.7419H52.838Z" fill="#F58220"/>
</svg>
