<svg viewBox="0 0 36 36" fill="none" xmlns="http://www.w3.org/2000/svg">
<path d="M18 5H6C5.44772 5 5 5.44772 5 6V18M18 5H30C30.5523 5 31 5.44772 31 6V18M18 5V31M18 31H19H30C30.5523 31 31 30.5523 31 30V18M18 31H6C5.44772 31 5 30.5523 5 30V18M5 18H31" stroke="#F58220" stroke-width="1.3"/>
<path d="M24.5 11.5H21H28" stroke="#F58220" stroke-width="1.3"/>
<path d="M11.5 23H8H15" stroke="#F58220" stroke-width="1.3"/>
<path d="M11.5 26H8H15" stroke="#F58220" stroke-width="1.3"/>
<path d="M11.5 8V11.5M11.5 15V11.5M11.5 11.5H8H15" stroke="#F58220" stroke-width="1.3"/>
<path d="M26.9749 22.0247L24.5 24.4996M22.0251 26.9744L24.5 24.4996M24.5 24.4996L22.0251 22.0247L26.9749 26.9744" stroke="#F58220" stroke-width="1.3"/>
</svg>
