<svg width="36" height="36" viewBox="0 0 36 36" fill="none" xmlns="http://www.w3.org/2000/svg">
<path d="M14.092 19.4711L13.8566 20.077L14.761 20.4282L14.7418 19.4582L14.092 19.4711ZM9.52264 13.8794L8.90913 14.0942L9.52264 13.8794ZM16.5755 32.9508L16.5344 33.5995L16.5755 32.9508ZM27.8983 17.5737L27.2875 17.7963L27.8983 17.5737ZM22.633 16.5762L23.1612 16.1973C22.9939 15.9642 22.6935 15.8683 22.4221 15.9614C22.1507 16.0545 21.9725 16.3145 21.9835 16.6012L22.633 16.5762ZM22.4323 28.5153L22.7172 29.0995L22.4323 28.5153ZM14.9497 28.9567L14.7548 28.3366C14.5191 28.4107 14.3457 28.612 14.3075 28.8562C14.2693 29.1004 14.3728 29.3451 14.5747 29.4876L14.9497 28.9567ZM14.3273 18.8652C13.7303 18.6333 12.9279 18.0518 12.1384 17.1408C11.3574 16.2397 10.6224 15.054 10.1361 13.6647L8.90913 14.0942C9.45278 15.6474 10.274 16.9746 11.156 17.9922C12.0294 18.9999 12.9967 19.743 13.8566 20.077L14.3273 18.8652ZM10.1361 13.6647C10.1017 13.5664 10.0101 13.3766 9.78634 13.2679C9.55272 13.1544 9.33635 13.2064 9.22333 13.2529C9.03628 13.33 8.91676 13.4749 8.87609 13.5242C8.75723 13.6683 8.63353 13.8759 8.51416 14.103C8.26645 14.5741 7.96151 15.2768 7.66057 16.1321C7.05883 17.8423 6.45057 20.2267 6.36123 22.6873C6.27211 25.1415 6.69731 27.7468 8.24674 29.8156C9.81331 31.9073 12.4457 33.341 16.5344 33.5995L16.6165 32.3021C12.8081 32.0613 10.5719 30.7516 9.28726 29.0363C7.98549 27.2982 7.5769 25.0332 7.66037 22.7344C7.74361 20.442 8.31431 18.1908 8.88687 16.5636C9.17307 15.7502 9.45411 15.1087 9.66484 14.7079C9.77468 14.4989 9.84831 14.3885 9.87909 14.3512C9.91324 14.3098 9.85663 14.398 9.71859 14.4549C9.63007 14.4914 9.43473 14.5423 9.21842 14.4373C9.01193 14.337 8.93392 14.165 8.90913 14.0942L10.1361 13.6647ZM16.5344 33.5995C23.0148 34.0092 26.791 31.8792 28.5215 28.5171C30.213 25.2311 29.8309 20.9789 28.509 17.3512L27.2875 17.7963C28.5483 21.2561 28.8225 25.0919 27.3657 27.9222C25.9479 30.6765 22.7714 32.6912 16.6165 32.3021L16.5344 33.5995ZM20.9953 4.12546C20.9605 3.79703 20.8989 3.50009 20.8004 3.24677C20.703 2.99628 20.5535 2.74795 20.3178 2.57228C19.7662 2.16106 19.156 2.39164 18.7643 2.66231C18.3574 2.94358 17.9521 3.40565 17.5653 3.96136C17.1712 4.52759 16.7674 5.23358 16.3749 6.0454C14.8108 9.2804 13.341 14.3738 13.4421 19.4839L14.7418 19.4582C14.6454 14.5835 16.0558 9.69189 17.5453 6.61129C17.9162 5.84421 18.2867 5.20063 18.6323 4.70397C18.9853 4.1968 19.2852 3.88265 19.5035 3.73172C19.7372 3.5702 19.6724 3.7126 19.5408 3.61455C19.5152 3.59547 19.5445 3.60406 19.5888 3.71799C19.632 3.8291 19.6751 4.0041 19.7025 4.26227L20.9953 4.12546ZM28.509 17.3512C27.1783 13.6993 25.3548 11.4564 23.8483 9.57896C22.3335 7.69114 21.2208 6.257 20.9953 4.12546L19.7025 4.26227C19.9735 6.82359 21.3443 8.53557 22.8343 10.3926C24.3327 12.2599 26.0356 14.3606 27.2875 17.7963L28.509 17.3512ZM22.1049 16.9552C23.0789 18.3126 24.1763 20.6123 24.4536 22.8191C24.5916 23.9171 24.5213 24.9499 24.1715 25.8222C23.8281 26.6784 23.2018 27.4169 22.1474 27.931L22.7172 29.0995C24.0608 28.4443 24.9144 27.4621 25.3781 26.3061C25.8352 25.1661 25.899 23.895 25.7435 22.657C25.4337 20.1919 24.2333 17.6915 23.1612 16.1973L22.1049 16.9552ZM22.1474 27.931C19.8614 29.0458 18.1217 29.1324 16.9845 28.9696C16.4119 28.8876 15.9819 28.7409 15.7024 28.62C15.5625 28.5595 15.4603 28.5055 15.3969 28.4693C15.3652 28.4512 15.3432 28.4375 15.3311 28.4298C15.325 28.4259 15.3215 28.4235 15.3204 28.4228C15.3198 28.4224 15.3199 28.4225 15.3206 28.423C15.321 28.4232 15.3215 28.4236 15.3222 28.424C15.3225 28.4243 15.3229 28.4245 15.3233 28.4248C15.3235 28.425 15.3238 28.4252 15.3239 28.4253C15.3243 28.4255 15.3246 28.4258 14.9497 28.9567C14.5747 29.4876 14.5751 29.4879 14.5754 29.4882C14.5756 29.4883 14.576 29.4886 14.5763 29.4888C14.5769 29.4892 14.5775 29.4896 14.5781 29.4901C14.5795 29.491 14.581 29.492 14.5826 29.4932C14.586 29.4955 14.59 29.4982 14.5947 29.5014C14.604 29.5077 14.6161 29.5157 14.6309 29.5251C14.6605 29.544 14.7009 29.5689 14.7521 29.5981C14.8543 29.6565 14.9994 29.7324 15.1863 29.8132C15.5604 29.975 16.1017 30.1565 16.8003 30.2565C18.2054 30.4576 20.207 30.3236 22.7172 29.0995L22.1474 27.931ZM15.1445 29.5768C18.237 28.6053 20.4016 27.3122 21.7201 25.1993C23.026 23.1065 23.4278 20.324 23.2826 16.5512L21.9835 16.6012C22.1259 20.2996 21.7119 22.7567 20.6172 24.5111C19.535 26.2453 17.714 27.4069 14.7548 28.3366L15.1445 29.5768Z" fill="#F58220"/>
<path d="M2 2L33 33" stroke="#F58220" stroke-width="1.3"/>
<path d="M33 2L2 33" stroke="#F58220" stroke-width="1.3"/>
</svg>
