<svg width="40" height="49" viewBox="0 0 40 49" fill="none" xmlns="http://www.w3.org/2000/svg">
<g filter="url(#filter0_b)">
<path d="M20.0323 1C9.52106 1 1 9.52106 1 20.0323C1 29.4165 7.77158 37.184 16.7071 38.7474C16.9856 38.7961 17.2349 38.9535 17.3935 39.1875C18.0481 40.1537 19.7095 42.5366 20.1698 42.5366C20.6331 42.5366 22.2424 40.1425 22.8616 39.1942C23.0178 38.9551 23.2669 38.7931 23.5476 38.7407C32.3795 37.0915 39.0646 29.3426 39.0646 20.0323C39.0646 9.52106 30.5436 1 20.0323 1Z" fill="#F58220"/>
<path d="M20.0323 1C9.52106 1 1 9.52106 1 20.0323C1 29.4165 7.77158 37.184 16.7071 38.7474C16.9856 38.7961 17.2349 38.9535 17.3935 39.1875C18.0481 40.1537 19.7095 42.5366 20.1698 42.5366C20.6331 42.5366 22.2424 40.1425 22.8616 39.1942C23.0178 38.9551 23.2669 38.7931 23.5476 38.7407C32.3795 37.0915 39.0646 29.3426 39.0646 20.0323C39.0646 9.52106 30.5436 1 20.0323 1Z" stroke="#F58220"/>
</g>
<circle cx="20.0645" cy="46.7686" r="1.5" fill="#F58220" stroke="#F58220"/>
<path fill-rule="evenodd" clip-rule="evenodd" d="M29.8938 22.9691L27.3998 20.9086L27.6255 19.2719C27.6343 19.2087 27.6139 19.1448 27.5696 19.0968C27.5252 19.0488 27.4612 19.0213 27.3939 19.0213H26.0829C25.9655 19.0213 25.8665 19.1039 25.8512 19.2143L25.7999 19.5864L24.8549 18.8057C24.78 18.7437 24.6719 18.7336 24.5854 18.7804L16.8837 22.9625C16.7916 23.0124 16.7465 23.1148 16.7737 23.2119C16.8009 23.3091 16.8937 23.3767 16.9995 23.3767H19.632C19.1197 25.6412 18.2259 27.5565 17.3252 27.5565C16.002 27.5565 14.5852 23.8897 14.5852 19.1273C14.5852 19.005 14.4807 18.9057 14.3516 18.9057C14.2227 18.9057 14.118 19.005 14.118 19.1273C14.118 23.8404 15.5268 28 17.3252 28H24.2225C25.4003 28 26.4357 25.9831 27.0079 23.3767H29.7628C29.7639 23.3767 29.7649 23.3765 29.7664 23.3767C29.8954 23.3767 30 23.2775 30 23.155C30 23.0771 29.9577 23.0086 29.8938 22.9691ZM24.8151 18.2644C24.3002 14.1133 22.9384 13 21.8867 13C21.8463 13 21.806 13.0018 21.7661 13.0055H15.0399C15.0236 13.0021 15.0066 13 14.9893 13C13.6425 13 12.4978 15.2511 12.0024 18.4856C11.9927 18.5493 12.0126 18.614 12.0569 18.6626C12.0702 18.677 12.0855 18.689 12.1018 18.6996C12.1421 18.7284 12.1913 18.7445 12.2426 18.7445H19.1415C19.2575 18.7445 19.3561 18.6637 19.3727 18.5546C19.8168 15.6456 20.8308 13.4489 21.8957 13.4489C21.9081 13.4489 21.9202 13.4471 21.9323 13.4453C23.1104 13.4879 23.9906 15.4109 24.3512 18.3163C24.3663 18.4379 24.4828 18.5244 24.6104 18.5107C24.7387 18.4964 24.8303 18.3862 24.8151 18.2644Z" fill="white"/>
<defs>
<filter id="filter0_b" x="-2.5" y="-2.5" width="45.0646" height="48.5366" filterUnits="userSpaceOnUse" color-interpolation-filters="sRGB">
<feFlood flood-opacity="0" result="BackgroundImageFix"/>
<feGaussianBlur in="BackgroundImage" stdDeviation="1.5"/>
<feComposite in2="SourceAlpha" operator="in" result="effect1_backgroundBlur"/>
<feBlend mode="normal" in="SourceGraphic" in2="effect1_backgroundBlur" result="shape"/>
</filter>
</defs>
</svg>
