<svg viewBox="0 0 104 104" fill="none" xmlns="http://www.w3.org/2000/svg">
<path fill-rule="evenodd" clip-rule="evenodd" d="M78.0998 47.8291V41.9101H60.2953V37H54.1777V57.1111C54.1777 62.2397 58.2839 66.3931 63.3542 66.3931H69.4552C73.445 66.3931 76.8363 63.8035 78.0998 60.2051H62.1406C61.1266 60.2051 60.2953 59.3643 60.2953 58.3385V47.8291H78.0998ZM42.6407 41.6578H36.5397C31.4693 41.6578 27.3798 45.8112 27.3798 50.9231V57.1111C27.3798 62.2397 31.486 66.3931 36.5397 66.3931H43.3389V60.1882H35.3261C34.3121 60.1882 33.4808 59.3475 33.4808 58.3218V49.6788C33.4808 48.653 34.3121 47.8122 35.3261 47.8122H43.8709C44.8849 47.8122 45.7161 48.653 45.7161 49.6788V66.3595H51.8338V50.9062C51.8006 45.8112 47.7111 41.6578 42.6407 41.6578ZM88.7391 41.6578H94.8397C99.9109 41.6578 104 45.8112 104 50.9231V57.1111C104 62.2397 99.8934 66.3931 94.8397 66.3931H88.7391C83.6687 66.3931 79.5626 62.2397 79.5626 57.1111V50.9231C79.5626 45.8112 83.6687 41.6578 88.7391 41.6578ZM87.5256 60.1882C86.5115 60.1882 85.6803 59.3475 85.6803 58.3218V49.6787C85.6803 48.6529 86.5115 47.8122 87.5256 47.8122H96.0702C97.0845 47.8122 97.9155 48.6529 97.9155 49.6787V58.3385C97.9155 59.3643 97.0845 60.205 96.0702 60.205H87.5256V60.1882ZM9.15985 41.6578H16.1419C20.1317 41.6578 23.5231 44.2306 24.7864 47.8291H8.31202C7.29796 47.8291 6.46675 48.6698 6.46675 49.6955V59.1625C2.75959 58.2881 0 54.9419 0 50.9231C0 45.8112 4.08951 41.6578 9.15985 41.6578Z" fill="#FAA61A"/>
<path d="M9.19757 66.3931H16.1405C21.1824 66.3931 25.249 62.1795 25.249 56.9936C25.249 52.9165 22.5048 49.5218 18.8185 48.6348V58.2389C18.8185 59.2795 17.992 60.1325 16.9835 60.1325H0.601562C1.85791 63.7831 5.21365 66.3931 9.19757 66.3931Z" fill="#FAA61A"/>
</svg>
