<svg viewBox="0 0 36 36" fill="none" xmlns="http://www.w3.org/2000/svg">
<path d="M31 27V3C31 2.44772 30.5523 2 30 2H6C5.44772 2 5 2.44772 5 3V33C5 33.5523 5.44771 34 6 34H24M31 27L24 34M31 27H25C24.4477 27 24 27.4477 24 28V34" stroke="#F58220" stroke-width="1.3" stroke-linejoin="round"/>
<path d="M17 10.5V7H20.25C21.2165 7 22 7.7835 22 8.75C22 9.7165 21.2165 10.5 20.25 10.5H17ZM17 10.5V12.75M17 10.5H15M17 15V12.75M17 12.75H20.5M17 12.75H15M24 19H12M9 30L13.6859 28.296C14.0816 28.1521 14.5 28.4452 14.5 28.8663C14.5 29.3509 15.0401 29.6399 15.4433 29.3711L19 27M27 23H9" stroke="#F58220" stroke-width="1.3"/>
</svg>
