<svg viewBox="0 0 66 30" fill="none" xmlns="http://www.w3.org/2000/svg">
<g clip-path="url(#clip0)">
<path d="M46.4937 2.88804V3.96075H55.4873C56.0866 3.96075 56.9885 3.96075 57.589 4.5736C58.1894 5.18761 58.1894 6.10735 58.1894 6.72137V15.9199C58.1894 16.5339 58.1894 17.4548 57.589 18.0665C56.9885 18.6805 56.0866 18.6805 55.4873 18.6805H51.1407C50.392 18.6805 49.4152 18.6805 49.0404 17.8372C48.6691 16.9926 49.1898 16.2256 49.6422 15.614L55.4876 7.63877H46.4939L42.8934 12.5464C42.2905 13.3676 41.7695 14.0814 41.7695 15.0002C41.7695 15.9199 42.2542 16.5832 42.8934 17.4551L43.7928 18.6808C44.6933 19.9062 45.5916 21.137 46.7927 21.7485C47.9935 22.3588 49.415 22.3588 51.3672 22.3588H55.2617C57.5127 22.3588 60.8853 22.3588 63.1376 20.0604C65.3852 17.7608 65.3852 14.3873 65.3852 13.1591V9.47988C65.3852 8.25162 65.3852 4.87956 63.1376 2.57974C60.8853 0.277832 57.5127 0.283904 55.2617 0.281335L49.0402 0.277832C48.4434 0.277832 47.6898 0.277832 47.0893 0.893014C46.4937 1.50726 46.4937 2.27402 46.4937 2.88804Z" fill="#DA4216"/>
<path d="M35.6998 7.63916H44.6982L33.8983 22.3589H24.9023L35.6998 7.63916Z" fill="#DA4216"/>
<path d="M0.609375 10.247C0.609375 9.63418 0.609375 8.86742 1.20912 8.25201C1.80726 7.63916 2.56025 7.63916 3.15886 7.63916H18.2308C20.1791 7.63916 21.6027 7.63916 22.804 8.25201C24.0001 8.86742 24.9015 10.0943 25.7991 11.3211L26.7003 12.5468C27.3411 13.4173 27.8276 14.0818 27.8276 15.0006C27.8276 15.9203 27.3018 16.6329 26.7003 17.4555L23.1025 22.3589H14.1057L19.9519 14.3875C20.4011 13.7735 20.9285 13.009 20.5516 12.1631C20.1791 11.3211 19.2037 11.3211 18.4544 11.3211H11.4057V29.7227H4.20852V11.3209H0.609375V10.247Z" fill="#DA4216"/>
</g>
<defs>
<clipPath id="clip0">
<rect width="64.7778" height="29.4444" fill="white" transform="translate(0.609375 0.277832)"/>
</clipPath>
</defs>
</svg>
