<svg viewBox="0 0 17 15" fill="none" xmlns="http://www.w3.org/2000/svg">
<path d="M7.53582 0H8.29062C8.33674 0 8.38098 0.0172674 8.41359 0.0480035C8.44621 0.0787397 8.46453 0.120427 8.46453 0.163894V14.0425C8.46453 14.0859 8.44621 14.1276 8.41359 14.1584C8.38098 14.1891 8.33674 14.2064 8.29062 14.2064H7.53582C6.54591 14.2064 5.56569 14.0226 4.65118 13.6655C3.73667 13.3084 2.90577 12.785 2.20596 12.1252C1.50615 11.4654 0.951138 10.6822 0.572632 9.82019C0.194126 8.95821 -0.000456114 8.0344 8.02829e-07 7.10154C8.02829e-07 5.21809 0.793951 3.41179 2.20719 2.07999C3.62043 0.748196 5.53719 0 7.53582 0V0Z" fill="#979797"/>
<path d="M16.5322 0.00125122H10.5407C10.4427 0.00125122 10.3633 0.0760969 10.3633 0.168424V6.05224C10.3633 6.14457 10.4427 6.21942 10.5407 6.21942H16.5322C16.6301 6.21942 16.7096 6.14457 16.7096 6.05224V0.168424C16.7096 0.0760969 16.6301 0.00125122 16.5322 0.00125122Z" fill="#979797"/>
<path d="M16.5322 7.93567H10.5407C10.4427 7.93567 10.3633 8.01051 10.3633 8.10284V14.0342C10.3633 14.1265 10.4427 14.2014 10.5407 14.2014H16.5322C16.6301 14.2014 16.7096 14.1265 16.7096 14.0342V8.10284C16.7096 8.01051 16.6301 7.93567 16.5322 7.93567Z" fill="#979797"/>
</svg>
