<svg viewBox="0 0 36 36" fill="none" xmlns="http://www.w3.org/2000/svg">
<path d="M30.7813 15.7116L31.8847 17.8063C31.9604 17.95 32 18.1099 32 18.2723V23.8421C32 24.3944 31.5523 24.8421 31 24.8421L28.4995 24.842M30.7813 15.7116L27.8283 11.2831C27.6428 11.0049 27.3306 10.8379 26.9963 10.8379H23.9139M30.7813 15.7116H24.9139C24.3617 15.7116 23.9139 15.2639 23.9139 14.7116V10.8379M23.9139 10.8379V9C23.9139 8.44771 23.4662 8 22.9139 8H5C4.44772 8 4 8.44772 4 9V23.8421C4 24.3944 4.44772 24.8421 5 24.8421H7.58073M13.6442 24.8418H22.2709M7.58073 24.8421C7.58073 26.5862 8.97984 28 10.7057 28C12.4316 28 13.8307 26.5862 13.8307 24.8421C13.8307 23.098 12.4316 21.6842 10.7057 21.6842C8.97984 21.6842 7.58073 23.098 7.58073 24.8421ZM28.5757 24.8421C28.5757 26.5862 27.1766 28 25.4507 28C23.7248 28 22.3257 26.5862 22.3257 24.8421C22.3257 23.098 23.7248 21.6842 25.4507 21.6842C27.1766 21.6842 28.5757 23.098 28.5757 24.8421Z" stroke="#F58220" stroke-width="1.3" stroke-linejoin="round"/>
</svg>
