<svg viewBox="0 0 20 20" fill="none" xmlns="http://www.w3.org/2000/svg">
<path d="M10 2.5C5.86433 2.5 2.5 5.86433 2.5 10C2.5 11.4109 2.89202 12.7805 3.63567 13.9698C3.33942 15.0077 2.80433 16.971 2.79856 16.9914C2.77087 17.093 2.80058 17.2014 2.87644 17.2744C2.95231 17.3474 3.06192 17.3734 3.16173 17.3428L6.13462 16.4284C7.29914 17.1299 8.63269 17.5 10 17.5C14.1357 17.5 17.5 14.1357 17.5 10C17.5 5.86433 14.1357 2.5 10 2.5ZM10 16.9231C8.69644 16.9231 7.42663 16.5588 6.3276 15.8699C6.28115 15.8408 6.22779 15.8261 6.17442 15.8261C6.14587 15.8261 6.11731 15.8304 6.08962 15.8388L3.49375 16.6378C3.68442 15.9417 4.02712 14.6967 4.22587 14.0041C4.24894 13.9239 4.23596 13.8374 4.19067 13.7673C3.46202 12.6461 3.07692 11.3434 3.07692 10C3.07692 6.18279 6.18279 3.07692 10 3.07692C13.8172 3.07692 16.9231 6.18279 16.9231 10C16.9231 13.8172 13.8172 16.9231 10 16.9231Z" fill="#F58220"/>
<path d="M10 16.9231C8.69644 16.9231 7.42663 16.5588 6.3276 15.8699C6.28115 15.8408 6.22779 15.8261 6.17442 15.8261C6.14587 15.8261 6.11731 15.8304 6.08962 15.8388L3.49375 16.6378C3.68442 15.9417 4.02712 14.6967 4.22587 14.0041C4.24894 13.9239 4.23596 13.8374 4.19067 13.7673C3.46202 12.6461 3.07692 11.3434 3.07692 10C3.07692 6.18279 6.18279 3.07692 10 3.07692C13.8172 3.07692 16.9231 6.18279 16.9231 10C16.9231 13.8172 13.8172 16.9231 10 16.9231Z" fill="#F58220"/>
<path d="M14.0988 11.4949C13.6682 11.2543 13.3015 11.0131 13.0339 10.8371C12.8295 10.7029 12.6819 10.606 12.5736 10.5513C12.2711 10.3994 12.0418 10.5067 11.9545 10.5954C11.9435 10.6064 11.9338 10.6184 11.9254 10.6311C11.6111 11.1053 11.2008 11.5589 11.0806 11.5833C10.9418 11.5615 10.2922 11.19 9.64645 10.6491C8.9872 10.0965 8.57243 9.56732 8.51155 9.20688C8.93448 8.76899 9.08681 8.49349 9.08681 8.17998C9.08681 7.85685 8.33752 6.50776 8.20199 6.37142C8.06599 6.23484 7.75969 6.21349 7.2915 6.30735C7.24648 6.3165 7.20495 6.3388 7.17229 6.37142C7.11561 6.42844 5.78918 7.78879 6.4195 9.43755C7.11141 11.2471 8.88736 13.3504 11.1516 13.692C11.4089 13.7308 11.6501 13.75 11.8759 13.75C13.2079 13.75 13.9941 13.0758 14.2155 11.7384C14.232 11.6406 14.1851 11.543 14.0988 11.4949ZM11.2209 13.2279C8.82648 12.8667 7.31833 10.4804 6.85503 9.26906C6.39548 8.06758 7.24298 6.99633 7.45573 6.75415C7.62882 6.72459 7.81101 6.71215 7.88706 6.72412C8.04592 6.94635 8.596 7.99178 8.62026 8.17998C8.62026 8.30318 8.58037 8.47472 8.10541 8.95273C8.06155 8.99662 8.03706 9.05622 8.03706 9.11864C8.03706 10.3474 10.6134 12.052 11.0697 12.052C11.4665 12.052 11.9839 11.3811 12.2785 10.9439C12.2956 10.9446 12.3243 10.9504 12.3651 10.9711C12.4491 11.0136 12.5946 11.1091 12.7787 11.2302C13.0218 11.39 13.3446 11.6021 13.7258 11.822C13.5527 12.6597 13.0689 13.5071 11.2209 13.2279Z" fill="white"/>
<path d="M11.2209 13.2279C8.82648 12.8667 7.31833 10.4804 6.85503 9.26906C6.39548 8.06758 7.24298 6.99633 7.45573 6.75415C7.62882 6.72459 7.81101 6.71215 7.88706 6.72412C8.04592 6.94635 8.596 7.99178 8.62026 8.17998C8.62026 8.30318 8.58037 8.47472 8.10541 8.95273C8.06155 8.99662 8.03706 9.05622 8.03706 9.11864C8.03706 10.3474 10.6134 12.052 11.0697 12.052C11.4665 12.052 11.9839 11.3811 12.2785 10.9439C12.2956 10.9446 12.3243 10.9504 12.3651 10.9711C12.4491 11.0136 12.5946 11.1091 12.7787 11.2302C13.0218 11.39 13.3446 11.6021 13.7258 11.822C13.5527 12.6597 13.0689 13.5071 11.2209 13.2279Z" fill="white"/>
</svg>
