<svg viewBox="0 0 20 20" fill="none" xmlns="http://www.w3.org/2000/svg">
<path d="M14.9728 11.318C14.7135 10.9832 14.7877 10.8342 14.9728 10.535C14.9761 10.5316 17.116 7.5076 17.3364 6.48208L17.3378 6.48139C17.4473 6.10767 17.3378 5.83301 16.808 5.83301H15.0549C14.6087 5.83301 14.4029 6.06872 14.2927 6.33245C14.2927 6.33245 13.4001 8.51742 12.1374 9.93375C11.7299 10.343 11.5415 10.4742 11.319 10.4742C11.2095 10.4742 11.0391 10.343 11.0391 9.96928V6.48139C11.0391 6.03319 10.9142 5.83301 10.5447 5.83301H7.78824C7.50831 5.83301 7.34196 6.04208 7.34196 6.2368C7.34196 6.66177 7.9733 6.75947 8.03877 7.95512V10.5493C8.03877 11.1178 7.93789 11.2223 7.71408 11.2223C7.11816 11.2223 5.67176 9.02847 4.81462 6.5176C4.64159 6.03046 4.47256 5.83369 4.02295 5.83369H2.26924C1.76885 5.83369 1.66797 6.06941 1.66797 6.33313C1.66797 6.79909 2.26389 9.11593 4.43916 12.1768C5.88889 14.2661 7.93054 15.3982 9.7878 15.3982C10.9042 15.3982 11.0404 15.1468 11.0404 14.7143C11.0404 12.7179 10.9396 12.5293 11.4987 12.5293C11.758 12.5293 12.2042 12.6605 13.2464 13.6683C14.4376 14.8633 14.6334 15.3982 15.3001 15.3982H17.0532C17.5529 15.3982 17.8061 15.1468 17.6604 14.6508C17.3271 13.6075 15.0743 11.4615 14.9728 11.318Z" fill="#F58220"/>
</svg>
