<svg viewBox="0 0 36 36" fill="none" xmlns="http://www.w3.org/2000/svg">
<path d="M12 19.8829H13.2761V15.8786L12 16.8039V16.0108L13.2914 15.0778H14.0096V19.8829H15.0565V20.5205H12V19.8829Z" fill="#F58220"/>
<path d="M17.5044 20.5983C17.214 20.5983 16.9618 20.5594 16.7479 20.4816C16.5339 20.3987 16.3531 20.2924 16.2054 20.1629C16.0627 20.0281 15.9532 19.8778 15.8768 19.7119C15.8004 19.546 15.7571 19.3749 15.7469 19.1987H16.4652C16.4906 19.3957 16.5925 19.5693 16.7708 19.7197C16.9542 19.87 17.1987 19.9451 17.5044 19.9451C17.8508 19.9451 18.1233 19.8363 18.322 19.6186C18.5206 19.3957 18.62 19.0873 18.62 18.6933C18.62 18.4704 18.5869 18.2786 18.5206 18.1179C18.4595 17.9572 18.3755 17.8276 18.2685 17.7292C18.1666 17.6307 18.0494 17.5581 17.917 17.5114C17.7845 17.4648 17.647 17.4415 17.5044 17.4415C17.2293 17.4415 17.0128 17.4933 16.8549 17.597C16.702 17.7006 16.5849 17.8199 16.5034 17.9546H15.8615V15.0778H19.0326V15.7153H16.5798V17.2315C16.8447 16.9361 17.1911 16.7883 17.619 16.7883C18.1488 16.7883 18.5665 16.9516 18.8721 17.2782C19.1829 17.6048 19.3383 18.0765 19.3383 18.6933C19.3383 18.9836 19.2924 19.2479 19.2007 19.4864C19.1141 19.7197 18.9893 19.9192 18.8263 20.0851C18.6684 20.251 18.4748 20.378 18.2456 20.4661C18.0214 20.5542 17.7744 20.5983 17.5044 20.5983Z" fill="#F58220"/>
<path d="M22.0897 20.5983C21.8299 20.5983 21.5828 20.5542 21.3485 20.4661C21.1193 20.378 20.918 20.2276 20.7448 20.0151C20.5716 19.7974 20.4341 19.5097 20.3322 19.1521C20.2303 18.7892 20.1794 18.3382 20.1794 17.7991V17.6436C20.1794 17.1408 20.2303 16.721 20.3322 16.384C20.4341 16.0471 20.5716 15.7775 20.7448 15.5754C20.918 15.368 21.1193 15.2203 21.3485 15.1322C21.5828 15.0441 21.8299 15 22.0897 15C22.3495 15 22.594 15.0441 22.8233 15.1322C23.0576 15.2203 23.2614 15.368 23.4346 15.5754C23.6078 15.7775 23.7453 16.0471 23.8472 16.384C23.9491 16.721 24 17.1408 24 17.6436V17.7991C24 18.3382 23.9491 18.7892 23.8472 19.1521C23.7453 19.5097 23.6078 19.7974 23.4346 20.0151C23.2614 20.2276 23.0576 20.378 22.8233 20.4661C22.594 20.5542 22.3495 20.5983 22.0897 20.5983ZM22.0897 19.9607C22.2476 19.9607 22.3979 19.9322 22.5405 19.8752C22.6883 19.813 22.8156 19.7041 22.9226 19.5486C23.0347 19.3879 23.1213 19.1676 23.1824 18.8877C23.2486 18.6078 23.2817 18.2449 23.2817 17.7991V17.6436C23.2817 17.2393 23.2486 16.9076 23.1824 16.6484C23.1213 16.3892 23.0347 16.1844 22.9226 16.0341C22.8156 15.8838 22.6883 15.7801 22.5405 15.7231C22.3979 15.6661 22.2476 15.6376 22.0897 15.6376C21.9267 15.6376 21.7739 15.6661 21.6312 15.7231C21.4886 15.7801 21.3612 15.8838 21.2492 16.0341C21.1422 16.1844 21.0556 16.3892 20.9894 16.6484C20.9282 16.9076 20.8977 17.2393 20.8977 17.6436V17.7991C20.8977 18.2449 20.9282 18.6078 20.9894 18.8877C21.0556 19.1676 21.1422 19.3879 21.2492 19.5486C21.3612 19.7041 21.4886 19.813 21.6312 19.8752C21.7739 19.9322 21.9267 19.9607 22.0897 19.9607Z" fill="#F58220"/>
<path d="M14.6759 22.879H15.3483V24.6052H15.8832L17.3962 22.879H18.1909L16.4334 24.854L18.2673 27H17.4115L15.8832 25.1961H15.3483V27H14.6759V22.879Z" fill="#F58220"/>
<path d="M19.0711 22.879H21.822V23.4855H19.7435V27H19.0711V22.879Z" fill="#F58220"/>
<path d="M12 19.8829H13.2761V15.8786L12 16.8039V16.0108L13.2914 15.0778H14.0096V19.8829H15.0565V20.5205H12V19.8829Z" stroke="#F58220" stroke-width="0.3"/>
<path d="M17.5044 20.5983C17.214 20.5983 16.9618 20.5594 16.7479 20.4816C16.5339 20.3987 16.3531 20.2924 16.2054 20.1629C16.0627 20.0281 15.9532 19.8778 15.8768 19.7119C15.8004 19.546 15.7571 19.3749 15.7469 19.1987H16.4652C16.4906 19.3957 16.5925 19.5693 16.7708 19.7197C16.9542 19.87 17.1987 19.9451 17.5044 19.9451C17.8508 19.9451 18.1233 19.8363 18.322 19.6186C18.5206 19.3957 18.62 19.0873 18.62 18.6933C18.62 18.4704 18.5869 18.2786 18.5206 18.1179C18.4595 17.9572 18.3755 17.8276 18.2685 17.7292C18.1666 17.6307 18.0494 17.5581 17.917 17.5114C17.7845 17.4648 17.647 17.4415 17.5044 17.4415C17.2293 17.4415 17.0128 17.4933 16.8549 17.597C16.702 17.7006 16.5849 17.8199 16.5034 17.9546H15.8615V15.0778H19.0326V15.7153H16.5798V17.2315C16.8447 16.9361 17.1911 16.7883 17.619 16.7883C18.1488 16.7883 18.5665 16.9516 18.8721 17.2782C19.1829 17.6048 19.3383 18.0765 19.3383 18.6933C19.3383 18.9836 19.2924 19.2479 19.2007 19.4864C19.1141 19.7197 18.9893 19.9192 18.8263 20.0851C18.6684 20.251 18.4748 20.378 18.2456 20.4661C18.0214 20.5542 17.7744 20.5983 17.5044 20.5983Z" stroke="#F58220" stroke-width="0.3"/>
<path d="M22.0897 20.5983C21.8299 20.5983 21.5828 20.5542 21.3485 20.4661C21.1193 20.378 20.918 20.2276 20.7448 20.0151C20.5716 19.7974 20.4341 19.5097 20.3322 19.1521C20.2303 18.7892 20.1794 18.3382 20.1794 17.7991V17.6436C20.1794 17.1408 20.2303 16.721 20.3322 16.384C20.4341 16.0471 20.5716 15.7775 20.7448 15.5754C20.918 15.368 21.1193 15.2203 21.3485 15.1322C21.5828 15.0441 21.8299 15 22.0897 15C22.3495 15 22.594 15.0441 22.8233 15.1322C23.0576 15.2203 23.2614 15.368 23.4346 15.5754C23.6078 15.7775 23.7453 16.0471 23.8472 16.384C23.9491 16.721 24 17.1408 24 17.6436V17.7991C24 18.3382 23.9491 18.7892 23.8472 19.1521C23.7453 19.5097 23.6078 19.7974 23.4346 20.0151C23.2614 20.2276 23.0576 20.378 22.8233 20.4661C22.594 20.5542 22.3495 20.5983 22.0897 20.5983ZM22.0897 19.9607C22.2476 19.9607 22.3979 19.9322 22.5405 19.8752C22.6883 19.813 22.8156 19.7041 22.9226 19.5486C23.0347 19.3879 23.1213 19.1676 23.1824 18.8877C23.2486 18.6078 23.2817 18.2449 23.2817 17.7991V17.6436C23.2817 17.2393 23.2486 16.9076 23.1824 16.6484C23.1213 16.3892 23.0347 16.1844 22.9226 16.0341C22.8156 15.8838 22.6883 15.7801 22.5405 15.7231C22.3979 15.6661 22.2476 15.6376 22.0897 15.6376C21.9267 15.6376 21.7739 15.6661 21.6312 15.7231C21.4886 15.7801 21.3612 15.8838 21.2492 16.0341C21.1422 16.1844 21.0556 16.3892 20.9894 16.6484C20.9282 16.9076 20.8977 17.2393 20.8977 17.6436V17.7991C20.8977 18.2449 20.9282 18.6078 20.9894 18.8877C21.0556 19.1676 21.1422 19.3879 21.2492 19.5486C21.3612 19.7041 21.4886 19.813 21.6312 19.8752C21.7739 19.9322 21.9267 19.9607 22.0897 19.9607Z" stroke="#F58220" stroke-width="0.3"/>
<path d="M14.6759 22.879H15.3483V24.6052H15.8832L17.3962 22.879H18.1909L16.4334 24.854L18.2673 27H17.4115L15.8832 25.1961H15.3483V27H14.6759V22.879Z" stroke="#F58220" stroke-width="0.3"/>
<path d="M19.0711 22.879H21.822V23.4855H19.7435V27H19.0711V22.879Z" stroke="#F58220" stroke-width="0.3"/>
<path d="M11.0796 10L10.1777 4.15243C10.0843 3.54656 10.553 3 11.1661 3H24.9201C25.5872 3 26.0947 3.64735 25.985 4.35847L25.1149 10M30 20.0109C30 26.6323 24.6274 32 18 32C11.3726 32 6 26.6323 6 20.0109C6 13.3895 11.3726 8.02182 18 8.02182C24.6274 8.02182 30 13.3895 30 20.0109Z" stroke="#F58220" stroke-width="1.3"/>
</svg>
