<svg viewBox="0 0 20 20" fill="none" xmlns="http://www.w3.org/2000/svg">
<path d="M17.3948 5.8465L17.3902 5.82803C17.0168 4.31836 15.3332 2.69841 13.7871 2.36139L13.7697 2.3578C11.2689 1.88073 8.73333 1.88073 6.23312 2.3578L6.21517 2.36139C4.66959 2.69841 2.98603 4.31836 2.61208 5.82803L2.60797 5.8465C2.1463 7.9548 2.1463 10.0929 2.60797 12.2012L2.61208 12.2196C2.97008 13.6649 4.52827 15.2104 6.01665 15.6354V17.3206C6.01665 17.9306 6.75994 18.2301 7.18263 17.79L8.89005 16.0152C9.26036 16.0359 9.63088 16.0474 10.0014 16.0474C11.2602 16.0474 12.5196 15.9284 13.7697 15.6899L13.7871 15.6863C15.3332 15.3493 17.0168 13.7293 17.3902 12.2197L17.3948 12.2012C17.8565 10.0929 17.8565 7.9548 17.3948 5.8465ZM16.0437 11.8954C15.7943 12.8803 14.516 14.1048 13.5004 14.331C12.1707 14.5838 10.8305 14.6919 9.49165 14.6548C9.46503 14.6541 9.43943 14.6644 9.42087 14.6835C9.23086 14.8785 8.1742 15.9633 8.1742 15.9633L6.84817 17.3242C6.75122 17.4252 6.58092 17.3565 6.58092 17.217V14.4253C6.58092 14.3792 6.54798 14.34 6.50269 14.3311C6.50294 14.3312 6.50243 14.3311 6.50269 14.3311C5.48701 14.1049 4.20844 12.8803 3.95862 11.8954C3.54311 9.9897 3.54311 8.05786 3.95862 6.15218C4.20844 5.16728 5.48624 3.94282 6.50192 3.7166C8.82413 3.27493 11.1787 3.27493 13.5004 3.7166C14.5165 3.94282 15.7943 5.16728 16.0437 6.15218C16.4596 8.05791 16.4596 9.98975 16.0437 11.8954Z" fill="#F58220"/>
<path d="M16.0437 11.8954C15.7943 12.8803 14.516 14.1048 13.5004 14.331C12.1707 14.5838 10.8305 14.6919 9.49165 14.6548C9.46503 14.6541 9.43943 14.6644 9.42087 14.6835L8.1742 15.9633L6.84817 17.3242C6.75122 17.4252 6.58092 17.3565 6.58092 17.217V14.4253C6.58092 14.3792 6.54798 14.34 6.50269 14.3311C5.48701 14.1049 4.20844 12.8803 3.95862 11.8954C3.54311 9.9897 3.54311 8.05786 3.95862 6.15218C4.20844 5.16728 5.48624 3.94282 6.50192 3.7166C8.82413 3.27493 11.1787 3.27493 13.5004 3.7166C14.5165 3.94282 15.7943 5.16728 16.0437 6.15218C16.4596 8.05791 16.4596 9.98975 16.0437 11.8954Z" fill="#F58220"/>
<path d="M12.2156 13.1832C12.0594 13.1358 11.9106 13.1039 11.7724 13.0466C10.3404 12.4525 9.02248 11.686 7.97854 10.511C7.38488 9.84289 6.92023 9.08857 6.52745 8.29029C6.34119 7.91172 6.18422 7.51832 6.02423 7.12749C5.87834 6.77108 6.09322 6.40287 6.31949 6.13433C6.53181 5.88231 6.80502 5.68943 7.1009 5.54729C7.33184 5.43634 7.55965 5.5003 7.72831 5.69605C8.09293 6.11925 8.42785 6.5641 8.69905 7.05465C8.86582 7.35638 8.82006 7.7252 8.51782 7.93054C8.44436 7.98046 8.37742 8.03904 8.30899 8.09541C8.24897 8.14481 8.1925 8.19472 8.15136 8.26161C8.07615 8.38401 8.07256 8.52836 8.12099 8.66142C8.49371 9.68572 9.12194 10.4822 10.1529 10.9112C10.3179 10.9798 10.4836 11.0598 10.6736 11.0376C10.9919 11.0004 11.095 10.6513 11.318 10.4689C11.536 10.2906 11.8146 10.2883 12.0495 10.4369C12.2843 10.5855 12.5121 10.7451 12.7384 10.9064C12.9605 11.0647 13.1817 11.2195 13.3867 11.4C13.5837 11.5735 13.6516 11.8012 13.5406 12.0367C13.3375 12.468 13.0419 12.8268 12.6155 13.0559C12.4951 13.1205 12.3513 13.1414 12.2156 13.1832C12.0594 13.1357 12.3513 13.1414 12.2156 13.1832Z" fill="white"/>
<path d="M10.0018 5.05547C11.8749 5.10794 13.4133 6.35102 13.743 8.20284C13.7992 8.51837 13.8192 8.84097 13.8441 9.16122C13.8547 9.29593 13.7784 9.42391 13.633 9.42566C13.4829 9.42745 13.4153 9.30183 13.4056 9.16717C13.3863 8.90063 13.3729 8.63291 13.3362 8.36858C13.1423 6.97325 12.0296 5.81887 10.6408 5.57115C10.4318 5.53386 10.2179 5.52406 10.0062 5.50185C9.87234 5.4878 9.69706 5.47969 9.66741 5.31334C9.64253 5.17386 9.76026 5.0628 9.89306 5.05567C9.92918 5.05367 9.96549 5.05531 10.0018 5.05547C11.8749 5.10794 9.96549 5.05531 10.0018 5.05547Z" fill="white"/>
<path d="M12.8519 8.74533C12.8489 8.76872 12.8472 8.82371 12.8335 8.87552C12.7838 9.06357 12.4987 9.08712 12.4331 8.89732C12.4136 8.84099 12.4107 8.77692 12.4106 8.71629C12.4099 8.31956 12.3237 7.92324 12.1236 7.57806C11.918 7.22329 11.6038 6.92506 11.2353 6.74459C11.0124 6.63548 10.7714 6.56767 10.5272 6.52725C10.4205 6.5096 10.3126 6.49888 10.2053 6.48395C10.0753 6.4659 10.0059 6.38305 10.0121 6.25496C10.0178 6.13493 10.1056 6.0486 10.2364 6.05598C10.6662 6.0804 11.0814 6.1733 11.4636 6.37567C12.2407 6.78722 12.6847 7.43684 12.8142 8.30428C12.8201 8.34357 12.8295 8.3825 12.8325 8.42195C12.8398 8.51936 12.8445 8.61688 12.8519 8.74533C12.8489 8.76872 12.8445 8.61688 12.8519 8.74533Z" fill="white"/>
<path d="M11.6875 8.69812C11.5308 8.70094 11.4469 8.6142 11.4308 8.47052C11.4195 8.37033 11.4106 8.26882 11.3867 8.17135C11.3397 7.9794 11.2376 7.8015 11.0761 7.68388C10.9999 7.62832 10.9135 7.58785 10.823 7.56174C10.7081 7.52855 10.5887 7.53768 10.474 7.50957C10.3495 7.47905 10.2806 7.3782 10.3002 7.26135C10.318 7.15501 10.4214 7.07201 10.5376 7.08042C11.2638 7.13285 11.7829 7.50829 11.8569 8.3632C11.8622 8.42353 11.8683 8.48729 11.8549 8.545C11.832 8.6438 11.7589 8.6933 11.6875 8.69812C11.5308 8.70094 11.7589 8.6933 11.6875 8.69812Z" fill="white"/>
</svg>
