<svg viewBox="0 0 36 36" fill="none" xmlns="http://www.w3.org/2000/svg">
<path d="M11 19.5L10.5404 19.0404C10.2865 19.2942 10.2865 19.7058 10.5404 19.9596L11 19.5ZM25 19.5L25.4596 19.9596C25.7135 19.7058 25.7135 19.2942 25.4596 19.0404L25 19.5ZM7 4.65H29V3.35H7V4.65ZM29.35 5V32H30.65V5H29.35ZM6.65 32V5H5.35V32H6.65ZM29 4.65C29.1933 4.65 29.35 4.8067 29.35 5H30.65C30.65 4.08873 29.9113 3.35 29 3.35V4.65ZM7 3.35C6.08873 3.35 5.35 4.08873 5.35 5H6.65C6.65 4.8067 6.8067 4.65 7 4.65V3.35ZM11 20.15H25V18.85H11V20.15ZM25.4596 19.0404L21.9596 15.5404L21.0404 16.4596L24.5404 19.9596L25.4596 19.0404ZM24.5404 19.0404L21.0404 22.5404L21.9596 23.4596L25.4596 19.9596L24.5404 19.0404ZM11.4596 19.9596L14.9596 16.4596L14.0404 15.5404L10.5404 19.0404L11.4596 19.9596ZM10.5404 19.9596L14.0404 23.4596L14.9596 22.5404L11.4596 19.0404L10.5404 19.9596Z" fill="#F58220"/>
</svg>
